<svg width="449" height="405" viewBox="0 0 449 405" fill="none" xmlns="http://www.w3.org/2000/svg">
<path d="M114.108 48.75C110.475 48.75 107.425 47.9833 104.958 46.45C102.491 44.8833 100.641 42.7333 99.408 40C98.1747 37.2333 97.558 34.0333 97.558 30.4C97.558 26.7667 98.1747 23.5667 99.408 20.8C100.641 18.0333 102.491 15.8833 104.958 14.35C107.425 12.7833 110.475 12 114.108 12C116.275 12 118.225 12.1833 119.958 12.55C121.691 12.9167 123.408 13.3 125.108 13.7L124.608 21L121.708 20.8V18.5C121.708 18.1333 121.575 17.55 121.308 16.75C121.075 15.9167 120.875 15.2333 120.708 14.7L122.108 16.3C120.975 15.9 119.641 15.55 118.108 15.25C116.608 14.9167 115.225 14.75 113.958 14.75C111.358 14.75 109.191 15.45 107.458 16.85C105.725 18.2167 104.425 20.0833 103.558 22.45C102.725 24.7833 102.308 27.4167 102.308 30.35C102.308 33.25 102.741 35.8833 103.608 38.25C104.475 40.6167 105.758 42.5 107.458 43.9C109.191 45.3 111.358 46 113.958 46C115.125 46 116.475 45.8667 118.008 45.6C119.575 45.3333 120.958 45 122.158 44.6L120.858 46.2C121.025 45.4333 121.208 44.5667 121.408 43.6C121.641 42.6333 121.758 41.9667 121.758 41.6V38.2C121.758 37.7667 121.725 37.2167 121.658 36.55C121.591 35.8833 121.508 35.2333 121.408 34.6C121.341 33.9667 121.275 33.4667 121.208 33.1L122.958 34.75L115.958 34.2L116.208 31.45H121.758C122.091 31.45 122.591 31.4333 123.258 31.4C123.925 31.3667 124.541 31.3333 125.108 31.3L126.008 32.15C125.941 32.9833 125.875 33.8667 125.808 34.8C125.741 35.7 125.675 36.5833 125.608 37.45C125.575 38.3167 125.558 39.1 125.558 39.8V47.05C123.891 47.45 122.108 47.8333 120.208 48.2C118.308 48.5667 116.275 48.75 114.108 48.75ZM140.327 60.2L137.227 58.95L137.127 58.55C137.694 57.6833 138.194 56.8333 138.627 56C139.06 55.2 139.46 54.3333 139.827 53.4C140.227 52.5 140.627 51.4833 141.027 50.35C141.46 49.2167 141.944 47.9 142.477 46.4L142.577 49.5L134.677 31.3C134.21 30.2 133.677 29.1167 133.077 28.05C132.477 26.9833 131.877 25.9167 131.277 24.85L133.677 26.75L129.677 25.9L129.927 23.3H140.727L140.877 25.9L135.427 26.45L136.627 24.65C136.894 25.6167 137.16 26.6167 137.427 27.65C137.694 28.65 138.027 29.6333 138.427 30.6L144.227 44.65H142.927L148.027 31.3C148.427 30.2333 148.777 29.15 149.077 28.05C149.377 26.9167 149.66 25.8 149.927 24.7L151.127 26.6L145.677 25.65L145.927 23.3H155.877L156.027 25.9L151.677 26.55L154.027 24.75C153.46 25.9833 152.877 27.2 152.277 28.4C151.677 29.6 151.144 30.8333 150.677 32.1L140.327 60.2ZM170.142 48.55C167.808 48.55 166.058 48.0667 164.892 47.1C163.758 46.1 163.008 44.7333 162.642 43C162.275 41.2333 162.092 39.2167 162.092 36.95V30.2C162.092 29.9 162.058 29.4667 161.992 28.9C161.925 28.3 161.825 27.65 161.692 26.95C161.592 26.25 161.492 25.6167 161.392 25.05L163.192 26.9L158.242 25.9L158.442 23.3H165.242L166.192 24.2C166.158 24.9 166.108 25.7167 166.042 26.65C165.975 27.5833 165.925 28.5 165.892 29.4C165.858 30.3 165.842 31.0667 165.842 31.7V38.85C165.842 40.7833 166.208 42.3833 166.942 43.65C167.675 44.8833 169.008 45.5 170.942 45.5C172.375 45.5 173.558 45.1167 174.492 44.35C175.425 43.5833 176.125 42.6 176.592 41.4C177.092 40.1667 177.342 38.9 177.342 37.6V30.2C177.342 29.9 177.308 29.4667 177.242 28.9C177.175 28.3 177.092 27.65 176.992 26.95C176.892 26.25 176.792 25.6167 176.692 25.05L178.542 26.85L173.342 25.9L173.542 23.3H180.492L181.442 24.2C181.408 24.9 181.358 25.7167 181.292 26.65C181.258 27.5833 181.225 28.5 181.192 29.4C181.158 30.3 181.142 31.0667 181.142 31.7V39.8C181.142 40.9333 181.208 42.0833 181.342 43.25C181.508 44.3833 181.642 45.5333 181.742 46.7L179.942 44.85L185.142 45.4L184.842 48H178.592L177.642 42.45L178.142 43.65C177.942 44.05 177.542 44.65 176.942 45.45C176.375 46.2167 175.542 46.9333 174.442 47.6C173.375 48.2333 171.942 48.55 170.142 48.55ZM188.194 48.25L187.944 45.85L193.544 44.7L191.544 46.55C191.611 46.2833 191.694 45.8167 191.794 45.15C191.928 44.4833 192.044 43.7833 192.144 43.05C192.278 42.2833 192.344 41.7 192.344 41.3V30.2C192.344 29.7667 192.294 29.1833 192.194 28.45C192.094 27.6833 191.978 26.9333 191.844 26.2C191.711 25.4333 191.611 24.8833 191.544 24.55L193.544 26.85L188.044 25.9L188.294 23.3H194.494L195.444 24.2L196.144 31.7L195.044 28.8C195.544 27.5333 196.178 26.4667 196.944 25.6C197.744 24.7333 198.678 24.0667 199.744 23.6C200.811 23.1333 201.978 22.9 203.244 22.9C205.611 22.9 207.394 23.3833 208.594 24.35C209.794 25.2833 210.611 26.6167 211.044 28.35C211.478 30.0833 211.694 32.1167 211.694 34.45V39.8C211.694 41.0333 211.744 42.25 211.844 43.45C211.978 44.65 212.094 45.5833 212.194 46.25L210.394 44.9L216.044 45.4L215.694 48H209.294C209.161 48 208.794 48.0167 208.194 48.05C207.594 48.0833 206.928 48.1167 206.194 48.15C205.494 48.1833 204.861 48.2167 204.294 48.25L204.044 45.85L209.044 44.65L207.194 45.8C207.294 45.4667 207.394 45.0667 207.494 44.6C207.628 44.1 207.728 43.5667 207.794 43C207.894 42.4333 207.944 41.8667 207.944 41.3V34.4C207.944 32.9333 207.811 31.55 207.544 30.25C207.278 28.9167 206.761 27.8333 205.994 27C205.228 26.1667 204.111 25.75 202.644 25.75C200.611 25.75 199.011 26.55 197.844 28.15C196.711 29.75 196.144 31.7833 196.144 34.25V39.8C196.144 41.1 196.194 42.4333 196.294 43.8C196.394 45.1667 196.494 46.15 196.594 46.75L194.744 44.9L200.394 45.4L200.044 48H193.694C193.361 48 192.878 48.0167 192.244 48.05C191.611 48.0833 190.928 48.1167 190.194 48.15C189.494 48.1833 188.828 48.2167 188.194 48.25ZM228.301 59.75C221.801 59.75 218.551 57.3333 218.551 52.5C218.551 52.0333 219.035 51.2667 220.001 50.2C220.968 49.1667 222.185 48.0833 223.651 46.95L225.501 47.15C224.701 48.1167 224.085 48.8833 223.651 49.45C223.251 50.05 222.968 50.5167 222.801 50.85C222.668 51.2167 222.601 51.5833 222.601 51.95C222.601 53.6833 223.168 54.95 224.301 55.75C225.435 56.5833 227.218 57 229.651 57C231.751 57 233.485 56.5 234.851 55.5C236.218 54.5333 236.901 53.25 236.901 51.65C236.901 50.8833 236.751 50.3333 236.451 50C236.185 49.6667 235.668 49.45 234.901 49.35L228.401 48.55C227.501 48.4167 226.735 48.2833 226.101 48.15C225.468 48.05 224.651 47.85 223.651 47.55C222.518 47.1833 221.701 46.7 221.201 46.1C220.735 45.5 220.501 44.7333 220.501 43.8C220.501 43.1333 221.918 41.6333 224.751 39.3L226.401 39.85C225.668 40.5833 225.151 41.2 224.851 41.7C224.551 42.1667 224.401 42.4833 224.401 42.65C224.401 43.15 224.701 43.5167 225.301 43.75C225.935 43.95 227.218 44.1667 229.151 44.4C230.185 44.5333 231.318 44.6833 232.551 44.85C233.785 44.9833 234.951 45.15 236.051 45.35C237.185 45.5167 238.085 45.7 238.751 45.9C240.218 46.3667 240.951 47.8167 240.951 50.25C240.951 51.9833 240.368 53.5667 239.201 55C238.068 56.4333 236.551 57.5833 234.651 58.45C232.751 59.3167 230.635 59.75 228.301 59.75ZM229.201 41C227.268 41 225.585 40.6167 224.151 39.85C222.718 39.0833 221.601 38.0167 220.801 36.65C220.035 35.2833 219.651 33.7 219.651 31.9C219.651 30.0667 220.051 28.4833 220.851 27.15C221.651 25.8167 222.768 24.7833 224.201 24.05C225.635 23.2833 227.301 22.9 229.201 22.9C231.135 22.9 232.818 23.2833 234.251 24.05C235.685 24.8167 236.785 25.8833 237.551 27.25C238.351 28.5833 238.751 30.15 238.751 31.95C238.751 33.75 238.351 35.3333 237.551 36.7C236.751 38.0667 235.635 39.1333 234.201 39.9C232.801 40.6333 231.135 41 229.201 41ZM229.201 38.5C232.868 38.5 234.701 36.3167 234.701 31.95C234.701 27.55 232.868 25.35 229.201 25.35C225.501 25.35 223.651 27.5333 223.651 31.9C223.651 36.3 225.501 38.5 229.201 38.5ZM241.351 25.9L236.101 25.8L233.001 24.3L240.951 22.7L241.351 25.9ZM270.765 36.1L262.565 20.3C261.899 18.9667 261.149 17.7667 260.315 16.7C259.515 15.6 258.982 14.8833 258.715 14.55L261.415 16.3L256.365 15.1L256.615 12.5C257.249 12.5333 257.949 12.5667 258.715 12.6C259.482 12.6333 260.199 12.6667 260.865 12.7C261.565 12.7333 262.065 12.75 262.365 12.75C263.899 12.75 265.332 12.7167 266.665 12.65C267.999 12.5833 268.882 12.5333 269.315 12.5L269.515 15.35L263.715 16.15L265.115 14.6C265.115 14.9333 265.282 15.7 265.615 16.9C265.982 18.1 266.682 19.6333 267.715 21.5L273.515 32.4L271.965 32.45L278.515 19.15C278.782 18.6167 279.065 18 279.365 17.3C279.699 16.5667 279.999 15.9167 280.265 15.35C280.532 14.75 280.682 14.3833 280.715 14.25L281.665 16.2L276.065 15.1L276.315 12.5C277.082 12.5333 277.882 12.5833 278.715 12.65C279.582 12.7167 280.265 12.75 280.765 12.75C282.332 12.75 283.815 12.7167 285.215 12.65C286.615 12.5833 287.532 12.5333 287.965 12.5L288.165 15.35L282.965 15.9L285.565 14.55C285.265 14.8833 284.715 15.6 283.915 16.7C283.149 17.8 282.332 19.15 281.465 20.75L273.615 36.1H270.765ZM266.015 48.25L265.765 45.8L271.465 44.65L269.515 46.6C269.582 46.3 269.665 45.8 269.765 45.1C269.865 44.3667 269.965 43.6333 270.065 42.9C270.165 42.1333 270.215 41.5833 270.215 41.25V31.95H274.515V39.75C274.515 40.6167 274.549 41.5 274.615 42.4C274.682 43.2667 274.765 44.0833 274.865 44.85C274.965 45.5833 275.049 46.1667 275.115 46.6L273.165 44.85L279.465 45.35L279.115 48H272.715C272.515 48 272.032 48.0167 271.265 48.05C270.499 48.0833 269.632 48.1167 268.665 48.15C267.732 48.1833 266.849 48.2167 266.015 48.25ZM301.751 48.5C299.251 48.5 297.151 47.95 295.451 46.85C293.751 45.75 292.468 44.2333 291.601 42.3C290.768 40.3667 290.351 38.1833 290.351 35.75C290.351 33.2833 290.734 31.0833 291.501 29.15C292.268 27.2167 293.451 25.7 295.051 24.6C296.651 23.4667 298.668 22.9 301.101 22.9C303.434 22.9 305.284 23.3833 306.651 24.35C308.018 25.3167 309.001 26.6667 309.601 28.4C310.234 30.1333 310.551 32.1333 310.551 34.4L309.751 36H293.551V33.75L308.001 32.65L306.401 34.4C306.401 33.9667 306.401 33.55 306.401 33.15C306.434 32.7167 306.451 32.25 306.451 31.75C306.451 29.9833 306.001 28.4667 305.101 27.2C304.201 25.9333 302.818 25.3 300.951 25.3C299.718 25.3 298.684 25.6167 297.851 26.25C297.018 26.85 296.368 27.6667 295.901 28.7C295.434 29.7333 295.101 30.85 294.901 32.05C294.701 33.2167 294.601 34.3833 294.601 35.55C294.601 36.65 294.734 37.7833 295.001 38.95C295.268 40.0833 295.684 41.15 296.251 42.15C296.818 43.15 297.518 43.95 298.351 44.55C299.218 45.15 300.251 45.45 301.451 45.45C303.018 45.45 304.501 45.2167 305.901 44.75C307.334 44.25 308.418 43.7833 309.151 43.35L310.451 45.55C310.551 45.45 310.434 45.55 310.101 45.85C309.768 46.1167 309.218 46.4667 308.451 46.9C307.718 47.3 306.784 47.6667 305.651 48C304.551 48.3333 303.251 48.5 301.751 48.5ZM326.703 48.5C324.17 48.5 322.053 47.95 320.353 46.85C318.653 45.75 317.37 44.25 316.503 42.35C315.67 40.4167 315.253 38.2 315.253 35.7C315.253 33.1667 315.67 30.95 316.503 29.05C317.37 27.1167 318.653 25.6 320.353 24.5C322.053 23.4 324.17 22.85 326.703 22.85C330.503 22.85 333.337 24.0333 335.203 26.4C337.103 28.7333 338.053 31.8333 338.053 35.7C338.053 38.2 337.62 40.4167 336.753 42.35C335.92 44.2833 334.653 45.8 332.953 46.9C331.287 47.9667 329.203 48.5 326.703 48.5ZM326.703 45.8C328.503 45.8 329.92 45.3 330.953 44.3C331.987 43.3 332.703 42.0333 333.103 40.5C333.537 38.9333 333.753 37.3333 333.753 35.7C333.753 34.0333 333.537 32.4333 333.103 30.9C332.703 29.3333 331.987 28.05 330.953 27.05C329.92 26.05 328.503 25.55 326.703 25.55C324.903 25.55 323.487 26.05 322.453 27.05C321.42 28.0167 320.67 29.2833 320.203 30.85C319.77 32.3833 319.553 34 319.553 35.7C319.553 37.3667 319.77 38.9833 320.203 40.55C320.67 42.0833 321.42 43.35 322.453 44.35C323.487 45.3167 324.903 45.8 326.703 45.8ZM341.742 48.25L341.492 45.85L347.092 44.7L345.092 46.55C345.159 46.2833 345.242 45.8167 345.342 45.15C345.476 44.4833 345.592 43.7833 345.692 43.05C345.826 42.2833 345.892 41.7 345.892 41.3V17.1C345.892 16.6667 345.842 16.1167 345.742 15.45C345.676 14.75 345.576 14.0333 345.442 13.3C345.342 12.5667 345.242 11.95 345.142 11.45L347.092 13.75L341.592 12.55L341.842 10.05L346.292 10.2H349.042L349.992 11.1C349.959 11.6 349.909 12.3 349.842 13.2C349.809 14.0667 349.776 14.9833 349.742 15.95C349.709 16.9167 349.692 17.8 349.692 18.6V39.8C349.692 41.1333 349.742 42.4833 349.842 43.85C349.942 45.1833 350.042 46.15 350.142 46.75L348.292 44.9L353.942 45.4L353.592 48H347.242C346.909 48 346.426 48.0167 345.792 48.05C345.159 48.0833 344.476 48.1167 343.742 48.15C343.042 48.1833 342.376 48.2167 341.742 48.25ZM10.1916 108.25L9.9416 105.8L15.6416 104.65L13.6916 106.6C13.7583 106.3 13.8416 105.8 13.9416 105.1C14.0416 104.367 14.1416 103.633 14.2416 102.9C14.3416 102.133 14.3916 101.583 14.3916 101.25V79.5C14.3916 79.1333 14.3416 78.6 14.2416 77.9C14.1749 77.1667 14.0749 76.4333 13.9416 75.7C13.8416 74.9667 13.7583 74.4333 13.6916 74.1L15.6416 76L10.0416 75.1L10.2916 72.5C10.9249 72.5333 11.6249 72.5667 12.3916 72.6C13.1583 72.6333 13.8749 72.6667 14.5416 72.7C15.2416 72.7333 15.7416 72.75 16.0416 72.75C17.1749 72.75 18.2916 72.7333 19.3916 72.7C20.5249 72.6333 21.6583 72.5667 22.7916 72.5L22.9916 75.35L17.3416 75.85L19.2416 74.1C19.2083 74.3667 19.1416 74.8833 19.0416 75.65C18.9416 76.4167 18.8583 77.2833 18.7916 78.25C18.7249 79.2167 18.6916 80.1333 18.6916 81V99.75C18.6916 100.617 18.7249 101.5 18.7916 102.4C18.8583 103.267 18.9416 104.083 19.0416 104.85C19.1416 105.583 19.2249 106.167 19.2916 106.6L17.3416 104.85L23.6416 105.35L23.2916 108H16.8916C15.7916 108 14.6749 108.017 13.5416 108.05C12.4416 108.117 11.3249 108.183 10.1916 108.25ZM28.3799 108.25L28.1299 105.85L33.7299 104.7L31.7299 106.55C31.7965 106.283 31.8799 105.817 31.9799 105.15C32.1132 104.483 32.2299 103.783 32.3299 103.05C32.4632 102.283 32.5299 101.7 32.5299 101.3V90.2C32.5299 89.7667 32.4799 89.1833 32.3799 88.45C32.2799 87.6833 32.1632 86.9333 32.0299 86.2C31.8965 85.4333 31.7965 84.8833 31.7299 84.55L33.7299 86.85L28.2299 85.9L28.4799 83.3H34.6799L35.6299 84.2L36.3299 91.7L35.2299 88.8C35.7299 87.5333 36.3632 86.4667 37.1299 85.6C37.9299 84.7333 38.8632 84.0667 39.9299 83.6C40.9966 83.1333 42.1632 82.9 43.4299 82.9C45.7966 82.9 47.5799 83.3833 48.7799 84.35C49.9799 85.2833 50.7966 86.6167 51.2299 88.35C51.6632 90.0833 51.8799 92.1167 51.8799 94.45V99.8C51.8799 101.033 51.9299 102.25 52.0299 103.45C52.1632 104.65 52.2799 105.583 52.3799 106.25L50.5799 104.9L56.2299 105.4L55.8799 108H49.4799C49.3466 108 48.9799 108.017 48.3799 108.05C47.7799 108.083 47.1132 108.117 46.3799 108.15C45.6799 108.183 45.0466 108.217 44.4799 108.25L44.2299 105.85L49.2299 104.65L47.3799 105.8C47.4799 105.467 47.5799 105.067 47.6799 104.6C47.8132 104.1 47.9132 103.567 47.9799 103C48.0799 102.433 48.1299 101.867 48.1299 101.3V94.4C48.1299 92.9333 47.9966 91.55 47.7299 90.25C47.4632 88.9167 46.9466 87.8333 46.1799 87C45.4132 86.1667 44.2966 85.75 42.8299 85.75C40.7966 85.75 39.1965 86.55 38.0299 88.15C36.8966 89.75 36.3299 91.7833 36.3299 94.25V99.8C36.3299 101.1 36.3799 102.433 36.4799 103.8C36.5799 105.167 36.6799 106.15 36.7799 106.75L34.9299 104.9L40.5799 105.4L40.2299 108H33.8799C33.5465 108 33.0632 108.017 32.4299 108.05C31.7965 108.083 31.1132 108.117 30.3799 108.15C29.6799 108.183 29.0132 108.217 28.3799 108.25ZM68.0869 108.5C66.0536 108.5 64.3869 108.25 63.0869 107.75C61.8202 107.217 60.9036 106.783 60.3369 106.45V100L63.1869 99.8V101.8C63.1869 102.033 63.2702 102.417 63.4369 102.95C63.6036 103.483 63.8202 104.033 64.0869 104.6C64.3536 105.167 64.6202 105.65 64.8869 106.05L63.4369 103.9C64.0369 104.767 64.7202 105.35 65.4869 105.65C66.2536 105.95 67.1369 106.1 68.1369 106.1C69.4702 106.1 70.5369 105.783 71.3369 105.15C72.1369 104.517 72.5369 103.517 72.5369 102.15C72.5369 100.917 72.0036 99.95 70.9369 99.25C69.8702 98.5167 68.6369 97.8167 67.2369 97.15C66.4036 96.75 65.5702 96.3333 64.7369 95.9C63.9036 95.4333 63.1369 94.9167 62.4369 94.35C61.7702 93.75 61.2202 93.05 60.7869 92.25C60.3869 91.45 60.1869 90.5 60.1869 89.4C60.1869 87.3333 60.9202 85.7333 62.3869 84.6C63.8869 83.4333 65.7202 82.85 67.8869 82.85C68.9869 82.85 70.1536 82.9333 71.3869 83.1C72.6202 83.2333 73.8202 83.4333 74.9869 83.7L74.9369 90.75L72.0869 90.6V88.85C72.0869 88.65 71.9869 88.2833 71.7869 87.75C71.6202 87.2167 71.4202 86.6667 71.1869 86.1C70.9869 85.5 70.8202 85.0333 70.6869 84.7L72.3869 86.55C71.5536 86.0833 70.8369 85.7667 70.2369 85.6C69.6369 85.4333 68.8702 85.35 67.9369 85.35C66.7702 85.35 65.8202 85.65 65.0869 86.25C64.3536 86.8167 63.9869 87.6333 63.9869 88.7C63.9869 89.8667 64.5202 90.8167 65.5869 91.55C66.6536 92.25 67.8869 92.9167 69.2869 93.55C70.1536 93.95 71.0036 94.3833 71.8369 94.85C72.6702 95.3167 73.4369 95.85 74.1369 96.45C74.8369 97.0167 75.3869 97.7 75.7869 98.5C76.2202 99.2667 76.4369 100.183 76.4369 101.25C76.4369 103.883 75.6869 105.75 74.1869 106.85C72.6869 107.95 70.6536 108.5 68.0869 108.5ZM88.2713 108.5C86.038 108.5 84.2713 107.933 82.9713 106.8C81.6713 105.633 81.0213 104.083 81.0213 102.15C81.0213 100.417 81.5713 98.9833 82.6713 97.85C83.8046 96.6833 85.488 95.9167 87.7213 95.55L96.4713 94.1V96.55L88.3213 98.1C87.3213 98.2667 86.538 98.65 85.9713 99.25C85.4046 99.85 85.1213 100.583 85.1213 101.45C85.1213 102.717 85.438 103.717 86.0713 104.45C86.738 105.15 87.6713 105.5 88.8713 105.5C90.638 105.5 92.1713 104.933 93.4713 103.8C94.8046 102.667 95.588 101.267 95.8213 99.6V92.55C95.8213 90.15 95.4213 88.3667 94.6213 87.2C93.8213 86 92.6213 85.4 91.0213 85.4C90.3213 85.4 89.5713 85.4667 88.7713 85.6C87.9713 85.7333 87.2213 85.9167 86.5213 86.15C85.8213 86.3833 85.288 86.6333 84.9213 86.9L86.4713 84.75L85.8713 88.5L85.9213 90.55L83.0213 90.7L82.5213 84.05C83.5213 83.7833 84.5213 83.5667 85.5213 83.4C86.5213 83.2333 87.5213 83.1167 88.5213 83.05C89.5213 82.95 90.5213 82.9 91.5213 82.9C94.488 82.9 96.5713 83.7167 97.7713 85.35C98.9713 86.95 99.5713 89.7167 99.5713 93.65V99.8C99.5713 101.3 99.6546 102.617 99.8213 103.75C100.021 104.85 100.188 105.717 100.321 106.35L98.6713 104.85L103.571 105.4L103.271 108H97.0213L96.0213 102.35L96.9213 102.2C96.8546 103.133 96.4046 104.1 95.5713 105.1C94.7713 106.067 93.7213 106.883 92.4213 107.55C91.1546 108.183 89.7713 108.5 88.2713 108.5ZM115.701 108.75C113.468 108.75 111.968 108.15 111.201 106.95C110.468 105.75 110.101 104.033 110.101 101.8V84.25L111.701 85.9H105.901L105.751 83.9C106.185 83.7333 106.718 83.55 107.351 83.35C107.985 83.1167 108.618 82.8833 109.251 82.65C109.918 82.4167 110.451 82.2333 110.851 82.1L109.151 83.75C109.318 83.55 109.535 83.2 109.801 82.7C110.101 82.1667 110.401 81.5833 110.701 80.95C111.001 80.2833 111.285 79.6833 111.551 79.15C111.818 78.6167 112.001 78.2333 112.101 78L113.901 78.2V102C113.901 103.133 114.101 104.017 114.501 104.65C114.901 105.283 115.668 105.6 116.801 105.6C117.535 105.6 118.285 105.433 119.051 105.1C119.851 104.733 120.568 104.267 121.201 103.7L122.551 105.85C121.351 106.817 120.168 107.533 119.001 108C117.868 108.5 116.768 108.75 115.701 108.75ZM113.051 85.9V83.3H121.301L121.051 85.9H113.051ZM125.938 108.25L125.688 105.85L131.288 104.7L129.288 106.55C129.355 106.283 129.438 105.817 129.538 105.15C129.672 104.483 129.788 103.783 129.888 103.05C130.022 102.283 130.088 101.7 130.088 101.3V90.2C130.088 89.7667 130.038 89.2167 129.938 88.55C129.872 87.85 129.772 87.1333 129.638 86.4C129.538 85.6667 129.438 85.05 129.338 84.55L131.288 86.85L125.788 85.9L126.038 83.3H133.238L134.188 84.2C134.155 84.7 134.105 85.4 134.038 86.3C134.005 87.1667 133.972 88.0833 133.938 89.05C133.905 90.0167 133.888 90.9 133.888 91.7V99.8C133.888 101.1 133.938 102.433 134.038 103.8C134.138 105.167 134.238 106.15 134.338 106.75L132.488 104.9L138.138 105.4L137.788 108H131.438C131.105 108 130.622 108.017 129.988 108.05C129.355 108.083 128.672 108.117 127.938 108.15C127.238 108.183 126.572 108.217 125.938 108.25ZM131.238 78.4C130.305 78.4 129.588 78.1167 129.088 77.55C128.588 76.9833 128.338 76.2333 128.338 75.3C128.338 74.3333 128.588 73.5667 129.088 73C129.588 72.4 130.305 72.1 131.238 72.1C132.172 72.1 132.888 72.3833 133.388 72.95C133.888 73.4833 134.138 74.2667 134.138 75.3C134.138 76.2333 133.888 76.9833 133.388 77.55C132.922 78.1167 132.205 78.4 131.238 78.4ZM148.672 108.5C146.438 108.5 144.672 107.933 143.372 106.8C142.072 105.633 141.422 104.083 141.422 102.15C141.422 100.417 141.972 98.9833 143.072 97.85C144.205 96.6833 145.888 95.9167 148.122 95.55L156.872 94.1V96.55L148.722 98.1C147.722 98.2667 146.938 98.65 146.372 99.25C145.805 99.85 145.522 100.583 145.522 101.45C145.522 102.717 145.838 103.717 146.472 104.45C147.138 105.15 148.072 105.5 149.272 105.5C151.038 105.5 152.572 104.933 153.872 103.8C155.205 102.667 155.988 101.267 156.222 99.6V92.55C156.222 90.15 155.822 88.3667 155.022 87.2C154.222 86 153.022 85.4 151.422 85.4C150.722 85.4 149.972 85.4667 149.172 85.6C148.372 85.7333 147.622 85.9167 146.922 86.15C146.222 86.3833 145.688 86.6333 145.322 86.9L146.872 84.75L146.272 88.5L146.322 90.55L143.422 90.7L142.922 84.05C143.922 83.7833 144.922 83.5667 145.922 83.4C146.922 83.2333 147.922 83.1167 148.922 83.05C149.922 82.95 150.922 82.9 151.922 82.9C154.888 82.9 156.972 83.7167 158.172 85.35C159.372 86.95 159.972 89.7167 159.972 93.65V99.8C159.972 101.3 160.055 102.617 160.222 103.75C160.422 104.85 160.588 105.717 160.722 106.35L159.072 104.85L163.972 105.4L163.672 108H157.422L156.422 102.35L157.322 102.2C157.255 103.133 156.805 104.1 155.972 105.1C155.172 106.067 154.122 106.883 152.822 107.55C151.555 108.183 150.172 108.5 148.672 108.5ZM178.252 108.5C176.152 108.5 174.285 108.3 172.652 107.9C171.018 107.5 169.685 107.1 168.652 106.7C168.718 106.067 168.768 105.383 168.802 104.65C168.868 103.883 168.918 103.2 168.952 102.6C168.985 101.967 169.002 101.533 169.002 101.3V77.1C169.002 76.7333 168.952 76.2333 168.852 75.6C168.785 74.9667 168.685 74.3333 168.552 73.7C168.452 73.0667 168.368 72.5667 168.302 72.2L170.202 73.75L164.702 72.55L164.952 70.05L169.402 70.2H172.152L173.102 71.1C173.068 71.8 173.018 72.6167 172.952 73.55C172.885 74.4833 172.835 75.4 172.802 76.3C172.768 77.2 172.752 77.9667 172.752 78.6V88.35L172.352 87.45C172.685 86.75 173.168 86.05 173.802 85.35C174.468 84.65 175.285 84.0667 176.252 83.6C177.252 83.1333 178.402 82.9 179.702 82.9C181.935 82.9 183.785 83.45 185.252 84.55C186.718 85.6167 187.818 87.0833 188.552 88.95C189.285 90.8167 189.652 92.9 189.652 95.2C189.652 97.5333 189.185 99.7167 188.252 101.75C187.352 103.783 186.052 105.417 184.352 106.65C182.652 107.883 180.618 108.5 178.252 108.5ZM173.402 106.6L172.252 105.05C173.018 105.283 173.885 105.483 174.852 105.65C175.818 105.817 176.868 105.9 178.002 105.9C179.835 105.9 181.285 105.4 182.352 104.4C183.452 103.4 184.235 102.1 184.702 100.5C185.168 98.8667 185.402 97.1167 185.402 95.25C185.402 93.55 185.218 91.9833 184.852 90.55C184.485 89.0833 183.852 87.9 182.952 87C182.052 86.1 180.785 85.65 179.152 85.65C177.718 85.65 176.518 86.0833 175.552 86.95C174.618 87.7833 173.918 88.8667 173.452 90.2C172.985 91.5 172.752 92.85 172.752 94.25V99.8C172.752 100.7 172.785 101.617 172.852 102.55C172.918 103.483 173.002 104.317 173.102 105.05C173.202 105.75 173.302 106.267 173.402 106.6ZM193.256 108.25L193.006 105.85L198.606 104.7L196.606 106.55C196.673 106.283 196.756 105.817 196.856 105.15C196.989 104.483 197.106 103.783 197.206 103.05C197.339 102.283 197.406 101.7 197.406 101.3V77.1C197.406 76.6667 197.356 76.1167 197.256 75.45C197.189 74.75 197.089 74.0333 196.956 73.3C196.856 72.5667 196.756 71.95 196.656 71.45L198.606 73.75L193.106 72.55L193.356 70.05L197.806 70.2H200.556L201.506 71.1C201.473 71.6 201.423 72.3 201.356 73.2C201.323 74.0667 201.289 74.9833 201.256 75.95C201.223 76.9167 201.206 77.8 201.206 78.6V99.8C201.206 101.133 201.256 102.483 201.356 103.85C201.456 105.183 201.556 106.15 201.656 106.75L199.806 104.9L205.456 105.4L205.106 108H198.756C198.423 108 197.939 108.017 197.306 108.05C196.673 108.083 195.989 108.117 195.256 108.15C194.556 108.183 193.889 108.217 193.256 108.25ZM218.306 120.2L215.206 118.95L215.106 118.55C215.672 117.683 216.172 116.833 216.606 116C217.039 115.2 217.439 114.333 217.806 113.4C218.206 112.5 218.606 111.483 219.006 110.35C219.439 109.217 219.922 107.9 220.456 106.4L220.556 109.5L212.656 91.3C212.189 90.2 211.656 89.1167 211.056 88.05C210.456 86.9833 209.856 85.9167 209.256 84.85L211.656 86.75L207.656 85.9L207.906 83.3H218.706L218.856 85.9L213.406 86.45L214.606 84.65C214.872 85.6167 215.139 86.6167 215.406 87.65C215.672 88.65 216.006 89.6333 216.406 90.6L222.206 104.65H220.906L226.006 91.3C226.406 90.2333 226.756 89.15 227.056 88.05C227.356 86.9167 227.639 85.8 227.906 84.7L229.106 86.6L223.656 85.65L223.906 83.3H233.856L234.006 85.9L229.656 86.55L232.006 84.75C231.439 85.9833 230.856 87.2 230.256 88.4C229.656 89.6 229.122 90.8333 228.656 92.1L218.306 120.2ZM265.652 108.75C262.185 108.75 259.285 107.983 256.952 106.45C254.618 104.883 252.868 102.733 251.702 100C250.535 97.2333 249.952 94.0333 249.952 90.4C249.952 86.7667 250.535 83.5667 251.702 80.8C252.868 78.0333 254.618 75.8833 256.952 74.35C259.285 72.7833 262.185 72 265.652 72C267.718 72 269.568 72.1833 271.202 72.55C272.835 72.9167 274.435 73.3 276.002 73.7L275.502 81L272.602 80.8V78.5C272.602 78.1667 272.485 77.6 272.252 76.8C272.018 76 271.818 75.3 271.652 74.7L272.952 76.35C271.985 75.9167 270.802 75.55 269.402 75.25C268.035 74.9167 266.785 74.75 265.652 74.75C263.252 74.75 261.235 75.45 259.602 76.85C258.002 78.2167 256.802 80.0833 256.002 82.45C255.202 84.7833 254.802 87.4167 254.802 90.35C254.802 93.25 255.202 95.8833 256.002 98.25C256.802 100.617 258.002 102.5 259.602 103.9C261.202 105.3 263.202 106 265.602 106C266.802 106 268.135 105.867 269.602 105.6C271.102 105.3 272.368 104.933 273.402 104.5L272.002 106.2C272.202 105.7 272.385 105.183 272.552 104.65C272.718 104.083 272.852 103.567 272.952 103.1C273.085 102.633 273.152 102.283 273.152 102.05L273.252 99.7L276.152 99.6L276.452 107.05C274.885 107.45 273.202 107.833 271.402 108.2C269.602 108.567 267.685 108.75 265.652 108.75ZM293.042 108.55C290.709 108.55 288.959 108.067 287.792 107.1C286.659 106.1 285.909 104.733 285.542 103C285.175 101.233 284.992 99.2167 284.992 96.95V90.2C284.992 89.9 284.959 89.4667 284.892 88.9C284.825 88.3 284.725 87.65 284.592 86.95C284.492 86.25 284.392 85.6167 284.292 85.05L286.092 86.9L281.142 85.9L281.342 83.3H288.142L289.092 84.2C289.059 84.9 289.009 85.7167 288.942 86.65C288.875 87.5833 288.825 88.5 288.792 89.4C288.759 90.3 288.742 91.0667 288.742 91.7V98.85C288.742 100.783 289.109 102.383 289.842 103.65C290.575 104.883 291.909 105.5 293.842 105.5C295.275 105.5 296.459 105.117 297.392 104.35C298.325 103.583 299.025 102.6 299.492 101.4C299.992 100.167 300.242 98.9 300.242 97.6V90.2C300.242 89.9 300.209 89.4667 300.142 88.9C300.075 88.3 299.992 87.65 299.892 86.95C299.792 86.25 299.692 85.6167 299.592 85.05L301.442 86.85L296.242 85.9L296.442 83.3H303.392L304.342 84.2C304.309 84.9 304.259 85.7167 304.192 86.65C304.159 87.5833 304.125 88.5 304.092 89.4C304.059 90.3 304.042 91.0667 304.042 91.7V99.8C304.042 100.933 304.109 102.083 304.242 103.25C304.409 104.383 304.542 105.533 304.642 106.7L302.842 104.85L308.042 105.4L307.742 108H301.492L300.542 102.45L301.042 103.65C300.842 104.05 300.442 104.65 299.842 105.45C299.275 106.217 298.442 106.933 297.342 107.6C296.275 108.233 294.842 108.55 293.042 108.55ZM311.095 108.25L310.845 105.85L316.445 104.7L314.445 106.55C314.511 106.283 314.595 105.817 314.695 105.15C314.828 104.483 314.945 103.783 315.045 103.05C315.178 102.283 315.245 101.7 315.245 101.3V90.2C315.245 89.7667 315.195 89.1833 315.095 88.45C314.995 87.6833 314.878 86.9333 314.745 86.2C314.611 85.4333 314.511 84.8833 314.445 84.55L316.445 86.85L310.945 85.9L311.195 83.3H317.395L318.345 84.2L319.045 91.7L317.545 90.1C317.911 89.2 318.328 88.3333 318.795 87.5C319.261 86.6333 319.828 85.85 320.495 85.15C321.195 84.45 322.045 83.9 323.045 83.5C324.078 83.0667 325.328 82.85 326.795 82.85C327.361 82.85 327.911 82.9 328.445 83C329.011 83.0667 329.561 83.1833 330.095 83.35L329.645 91.4L326.795 91.25V88.65C326.795 88.4833 326.728 88.1667 326.595 87.7C326.461 87.2333 326.295 86.7333 326.095 86.2C325.928 85.6333 325.761 85.1667 325.595 84.8L327.945 86.1C327.611 86.1333 327.261 86.15 326.895 86.15C326.561 86.15 326.228 86.15 325.895 86.15C323.495 86.15 321.745 86.8667 320.645 88.3C319.578 89.7333 319.045 91.6333 319.045 94V99.8C319.045 101.1 319.095 102.433 319.195 103.8C319.295 105.167 319.395 106.15 319.495 106.75L317.645 104.9L324.345 105.4L324.045 108H316.595C316.261 108 315.778 108.017 315.145 108.05C314.511 108.083 313.828 108.117 313.095 108.15C312.395 108.183 311.728 108.217 311.095 108.25ZM333.849 108.25L333.599 105.85L339.199 104.7L337.199 106.55C337.265 106.283 337.349 105.817 337.449 105.15C337.582 104.483 337.699 103.783 337.799 103.05C337.932 102.283 337.999 101.7 337.999 101.3V90.2C337.999 89.7667 337.949 89.2167 337.849 88.55C337.782 87.85 337.682 87.1333 337.549 86.4C337.449 85.6667 337.349 85.05 337.249 84.55L339.199 86.85L333.699 85.9L333.949 83.3H341.149L342.099 84.2C342.065 84.7 342.015 85.4 341.949 86.3C341.915 87.1667 341.882 88.0833 341.849 89.05C341.815 90.0167 341.799 90.9 341.799 91.7V99.8C341.799 101.1 341.849 102.433 341.949 103.8C342.049 105.167 342.149 106.15 342.249 106.75L340.399 104.9L346.049 105.4L345.699 108H339.349C339.015 108 338.532 108.017 337.899 108.05C337.265 108.083 336.582 108.117 335.849 108.15C335.149 108.183 334.482 108.217 333.849 108.25ZM339.149 78.4C338.215 78.4 337.499 78.1167 336.999 77.55C336.499 76.9833 336.249 76.2333 336.249 75.3C336.249 74.3333 336.499 73.5667 336.999 73C337.499 72.4 338.215 72.1 339.149 72.1C340.082 72.1 340.799 72.3833 341.299 72.95C341.799 73.4833 342.049 74.2667 342.049 75.3C342.049 76.2333 341.799 76.9833 341.299 77.55C340.832 78.1167 340.115 78.4 339.149 78.4ZM360.932 108.5C358.399 108.5 356.282 107.95 354.582 106.85C352.882 105.75 351.599 104.25 350.732 102.35C349.899 100.417 349.482 98.2 349.482 95.7C349.482 93.1667 349.899 90.95 350.732 89.05C351.599 87.1167 352.882 85.6 354.582 84.5C356.282 83.4 358.399 82.85 360.932 82.85C364.732 82.85 367.565 84.0333 369.432 86.4C371.332 88.7333 372.282 91.8333 372.282 95.7C372.282 98.2 371.849 100.417 370.982 102.35C370.149 104.283 368.882 105.8 367.182 106.9C365.515 107.967 363.432 108.5 360.932 108.5ZM360.932 105.8C362.732 105.8 364.149 105.3 365.182 104.3C366.215 103.3 366.932 102.033 367.332 100.5C367.765 98.9333 367.982 97.3333 367.982 95.7C367.982 94.0333 367.765 92.4333 367.332 90.9C366.932 89.3333 366.215 88.05 365.182 87.05C364.149 86.05 362.732 85.55 360.932 85.55C359.132 85.55 357.715 86.05 356.682 87.05C355.649 88.0167 354.899 89.2833 354.432 90.85C353.999 92.3833 353.782 94 353.782 95.7C353.782 97.3667 353.999 98.9833 354.432 100.55C354.899 102.083 355.649 103.35 356.682 104.35C357.715 105.317 359.132 105.8 360.932 105.8ZM387.671 108.55C385.338 108.55 383.588 108.067 382.421 107.1C381.288 106.1 380.538 104.733 380.171 103C379.804 101.233 379.621 99.2167 379.621 96.95V90.2C379.621 89.9 379.588 89.4667 379.521 88.9C379.454 88.3 379.354 87.65 379.221 86.95C379.121 86.25 379.021 85.6167 378.921 85.05L380.721 86.9L375.771 85.9L375.971 83.3H382.771L383.721 84.2C383.688 84.9 383.638 85.7167 383.571 86.65C383.504 87.5833 383.454 88.5 383.421 89.4C383.388 90.3 383.371 91.0667 383.371 91.7V98.85C383.371 100.783 383.738 102.383 384.471 103.65C385.204 104.883 386.538 105.5 388.471 105.5C389.904 105.5 391.088 105.117 392.021 104.35C392.954 103.583 393.654 102.6 394.121 101.4C394.621 100.167 394.871 98.9 394.871 97.6V90.2C394.871 89.9 394.838 89.4667 394.771 88.9C394.704 88.3 394.621 87.65 394.521 86.95C394.421 86.25 394.321 85.6167 394.221 85.05L396.071 86.85L390.871 85.9L391.071 83.3H398.021L398.971 84.2C398.938 84.9 398.888 85.7167 398.821 86.65C398.788 87.5833 398.754 88.5 398.721 89.4C398.688 90.3 398.671 91.0667 398.671 91.7V99.8C398.671 100.933 398.738 102.083 398.871 103.25C399.038 104.383 399.171 105.533 399.271 106.7L397.471 104.85L402.671 105.4L402.371 108H396.121L395.171 102.45L395.671 103.65C395.471 104.05 395.071 104.65 394.471 105.45C393.904 106.217 393.071 106.933 391.971 107.6C390.904 108.233 389.471 108.55 387.671 108.55ZM414.474 108.5C412.44 108.5 410.774 108.25 409.474 107.75C408.207 107.217 407.29 106.783 406.724 106.45V100L409.574 99.8V101.8C409.574 102.033 409.657 102.417 409.824 102.95C409.99 103.483 410.207 104.033 410.474 104.6C410.74 105.167 411.007 105.65 411.274 106.05L409.824 103.9C410.424 104.767 411.107 105.35 411.874 105.65C412.64 105.95 413.524 106.1 414.524 106.1C415.857 106.1 416.924 105.783 417.724 105.15C418.524 104.517 418.924 103.517 418.924 102.15C418.924 100.917 418.39 99.95 417.324 99.25C416.257 98.5167 415.024 97.8167 413.624 97.15C412.79 96.75 411.957 96.3333 411.124 95.9C410.29 95.4333 409.524 94.9167 408.824 94.35C408.157 93.75 407.607 93.05 407.174 92.25C406.774 91.45 406.574 90.5 406.574 89.4C406.574 87.3333 407.307 85.7333 408.774 84.6C410.274 83.4333 412.107 82.85 414.274 82.85C415.374 82.85 416.54 82.9333 417.774 83.1C419.007 83.2333 420.207 83.4333 421.374 83.7L421.324 90.75L418.474 90.6V88.85C418.474 88.65 418.374 88.2833 418.174 87.75C418.007 87.2167 417.807 86.6667 417.574 86.1C417.374 85.5 417.207 85.0333 417.074 84.7L418.774 86.55C417.94 86.0833 417.224 85.7667 416.624 85.6C416.024 85.4333 415.257 85.35 414.324 85.35C413.157 85.35 412.207 85.65 411.474 86.25C410.74 86.8167 410.374 87.6333 410.374 88.7C410.374 89.8667 410.907 90.8167 411.974 91.55C413.04 92.25 414.274 92.9167 415.674 93.55C416.54 93.95 417.39 94.3833 418.224 94.85C419.057 95.3167 419.824 95.85 420.524 96.45C421.224 97.0167 421.774 97.7 422.174 98.5C422.607 99.2667 422.824 100.183 422.824 101.25C422.824 103.883 422.074 105.75 420.574 106.85C419.074 107.95 417.04 108.5 414.474 108.5ZM433.508 108.5C432.508 108.5 431.741 108.183 431.208 107.55C430.675 106.917 430.408 106.1 430.408 105.1C430.408 104.1 430.675 103.283 431.208 102.65C431.741 101.983 432.508 101.65 433.508 101.65C434.508 101.65 435.275 101.967 435.808 102.6C436.375 103.2 436.658 104.033 436.658 105.1C436.658 106.1 436.391 106.917 435.858 107.55C435.325 108.183 434.541 108.5 433.508 108.5Z" fill="black"/>
<path d="M177.862 216.84C177.862 220.54 176.392 222.39 173.452 222.39C171.772 222.39 170.932 221.77 170.932 220.53C170.932 219.75 171.262 219.36 171.922 219.36C172.582 219.36 173.052 219.73 173.332 220.47C173.612 221.19 173.882 221.55 174.142 221.55C175.182 221.55 175.702 220.85 175.702 219.45V206.43C175.702 205.43 175.482 204.74 175.042 204.36C174.622 203.98 173.842 203.79 172.702 203.79V203.34H180.802V203.79C179.662 203.79 178.882 203.97 178.462 204.33C178.062 204.67 177.862 205.37 177.862 206.43V216.84ZM193.169 220.86C192.389 221.8 191.559 222.27 190.679 222.27C189.619 222.27 189.089 221.53 189.089 220.05C187.389 221.53 185.939 222.27 184.739 222.27C183.939 222.27 183.239 222.01 182.639 221.49C182.059 220.97 181.769 220.26 181.769 219.36C181.769 218.26 182.209 217.34 183.089 216.6C183.969 215.86 185.959 214.89 189.059 213.69V212.04C189.059 210.4 188.249 209.58 186.629 209.58C186.109 209.58 185.609 209.73 185.129 210.03C184.649 210.31 184.409 210.68 184.409 211.14C184.409 211.42 184.439 211.75 184.499 212.13C184.519 212.21 184.529 212.28 184.529 212.34C184.529 213.04 184.179 213.39 183.479 213.39C182.699 213.39 182.309 212.99 182.309 212.19C182.309 211.37 182.729 210.64 183.569 210C184.429 209.36 185.529 209.04 186.869 209.04C188.229 209.04 189.229 209.34 189.869 209.94C190.529 210.52 190.859 211.72 190.859 213.54V219.03C190.859 220.25 191.199 220.86 191.879 220.86C192.199 220.86 192.629 220.64 193.169 220.2V220.86ZM189.059 214.35C185.679 215.47 183.989 216.84 183.989 218.46C183.989 220.06 184.639 220.86 185.939 220.86C186.739 220.86 187.459 220.66 188.099 220.26C188.739 219.84 189.059 219.26 189.059 218.52V214.35ZM206.069 209.67C205.269 209.73 204.609 210.46 204.089 211.86L200.669 220.95C200.309 221.89 200.089 222.36 200.009 222.36C199.929 222.36 199.709 221.92 199.349 221.04C198.689 219.38 197.879 217.43 196.919 215.19C195.959 212.93 195.299 211.45 194.939 210.75C194.579 210.03 193.989 209.67 193.169 209.67V209.31H198.689V209.67C197.689 209.77 197.189 210.2 197.189 210.96C197.189 211.22 197.269 211.54 197.429 211.92L200.369 219.12C202.449 213.66 203.489 210.76 203.489 210.42C203.489 209.92 203.039 209.67 202.139 209.67V209.31H206.069V209.67ZM218.571 220.86C217.791 221.8 216.961 222.27 216.081 222.27C215.021 222.27 214.491 221.53 214.491 220.05C212.791 221.53 211.341 222.27 210.141 222.27C209.341 222.27 208.641 222.01 208.041 221.49C207.461 220.97 207.171 220.26 207.171 219.36C207.171 218.26 207.611 217.34 208.491 216.6C209.371 215.86 211.361 214.89 214.461 213.69V212.04C214.461 210.4 213.651 209.58 212.031 209.58C211.511 209.58 211.011 209.73 210.531 210.03C210.051 210.31 209.811 210.68 209.811 211.14C209.811 211.42 209.841 211.75 209.901 212.13C209.921 212.21 209.931 212.28 209.931 212.34C209.931 213.04 209.581 213.39 208.881 213.39C208.101 213.39 207.711 212.99 207.711 212.19C207.711 211.37 208.131 210.64 208.971 210C209.831 209.36 210.931 209.04 212.271 209.04C213.631 209.04 214.631 209.34 215.271 209.94C215.931 210.52 216.261 211.72 216.261 213.54V219.03C216.261 220.25 216.601 220.86 217.281 220.86C217.601 220.86 218.031 220.64 218.571 220.2V220.86ZM214.461 214.35C211.081 215.47 209.391 216.84 209.391 218.46C209.391 220.06 210.041 220.86 211.341 220.86C212.141 220.86 212.861 220.66 213.501 220.26C214.141 219.84 214.461 219.26 214.461 218.52V214.35ZM226.55 213.15C226.13 210.85 225.07 209.7 223.37 209.7C222.67 209.7 222.1 209.93 221.66 210.39C221.24 210.83 221.03 211.29 221.03 211.77C221.03 212.55 221.46 213.19 222.32 213.69L225.35 215.49C227.01 216.57 227.84 217.64 227.84 218.7C227.84 219.74 227.43 220.6 226.61 221.28C225.79 221.94 224.84 222.27 223.76 222.27C223.26 222.27 222.63 222.17 221.87 221.97C221.13 221.75 220.65 221.64 220.43 221.64C220.23 221.64 220.02 221.8 219.8 222.12H219.5V217.71H219.89C220.51 220.35 221.74 221.67 223.58 221.67C225.24 221.67 226.07 220.92 226.07 219.42C226.07 218.62 225.58 217.94 224.6 217.38L222.98 216.45C221.38 215.51 220.39 214.78 220.01 214.26C219.65 213.72 219.47 213.13 219.47 212.49C219.47 211.51 219.83 210.69 220.55 210.03C221.27 209.37 222.22 209.04 223.4 209.04C223.86 209.04 224.72 209.26 225.98 209.7C226.18 209.7 226.37 209.56 226.55 209.28H226.79L226.91 213.15H226.55ZM239.998 217.86C238.598 220.8 236.718 222.27 234.358 222.27C232.918 222.27 231.678 221.7 230.638 220.56C229.598 219.42 229.078 217.9 229.078 216C229.078 213.92 229.688 212.24 230.908 210.96C232.128 209.68 233.628 209.04 235.408 209.04C236.408 209.04 237.358 209.31 238.258 209.85C239.158 210.37 239.608 211.04 239.608 211.86C239.608 212.66 239.218 213.06 238.438 213.06C237.838 213.06 237.428 212.64 237.208 211.8L237.028 211.17C236.748 210.27 236.038 209.82 234.898 209.82C233.838 209.82 232.888 210.31 232.048 211.29C231.208 212.25 230.788 213.44 230.788 214.86C230.788 216.48 231.218 217.82 232.078 218.88C232.958 219.92 234.018 220.44 235.258 220.44H235.588C237.048 220.32 238.388 219.37 239.608 217.59L239.998 217.86ZM242.667 212.58C242.667 211.42 242.267 210.84 241.467 210.84C241.147 210.84 240.827 210.88 240.507 210.96V210.57C241.907 210.11 243.217 209.63 244.437 209.13L244.557 209.19V211.95C245.917 210.01 247.117 209.04 248.157 209.04C249.217 209.04 249.747 209.55 249.747 210.57C249.747 211.27 249.397 211.62 248.697 211.62C248.357 211.62 247.927 211.41 247.407 210.99C247.147 210.79 246.927 210.69 246.747 210.69C246.407 210.69 245.957 211.05 245.397 211.77C244.837 212.47 244.557 213.04 244.557 213.48V219.45C244.557 220.91 245.437 221.64 247.197 221.64V222H240.447V221.64C241.487 221.48 242.117 221.25 242.337 220.95C242.557 220.63 242.667 220.19 242.667 219.63V212.58ZM249.552 221.64C250.492 221.64 251.132 221.49 251.472 221.19C251.832 220.87 252.012 220.18 252.012 219.12V212.58C252.012 211.42 251.602 210.84 250.782 210.84C250.522 210.84 250.152 210.88 249.672 210.96V210.6C251.292 210.08 252.662 209.59 253.782 209.13L253.902 209.22V219.12C253.902 220.1 254.052 220.77 254.352 221.13C254.652 221.47 255.282 221.64 256.242 221.64V222H249.552V221.64ZM252.732 202.89C253.592 202.89 254.022 203.32 254.022 204.18C254.022 205.04 253.592 205.47 252.732 205.47C251.872 205.47 251.442 205.04 251.442 204.18C251.442 203.32 251.872 202.89 252.732 202.89ZM258.664 212.28C258.664 211.18 258.254 210.63 257.434 210.63C257.414 210.63 257.394 210.63 257.374 210.63L256.564 210.66V210.27C257.584 209.97 258.864 209.49 260.404 208.83L260.554 208.89V210.93L260.614 210.99C261.714 209.55 263.144 208.83 264.904 208.83C266.204 208.83 267.304 209.39 268.204 210.51C269.104 211.61 269.554 213.07 269.554 214.89C269.554 216.83 269.004 218.51 267.904 219.93C266.804 221.35 265.384 222.06 263.644 222.06C262.424 222.06 261.394 221.66 260.554 220.86V224.37C260.554 225.25 260.744 225.83 261.124 226.11C261.504 226.41 262.224 226.56 263.284 226.56V227.01H256.474V226.59C257.934 226.59 258.664 225.92 258.664 224.58V212.28ZM260.554 219.42C260.554 219.78 260.884 220.16 261.544 220.56C262.224 220.96 262.934 221.16 263.674 221.16C266.294 221.16 267.604 219.35 267.604 215.73C267.604 214.21 267.254 212.96 266.554 211.98C265.854 211 264.854 210.51 263.554 210.51C263.014 210.51 262.394 210.7 261.694 211.08C261.014 211.46 260.634 211.89 260.554 212.37V219.42ZM277.016 210.09H273.926V218.28C273.926 219.98 274.486 220.83 275.606 220.83C276.226 220.83 276.796 220.5 277.316 219.84L277.676 220.14C276.916 221.56 275.816 222.27 274.376 222.27C272.816 222.27 272.036 221.08 272.036 218.7V210.09H270.296L270.176 209.91C270.176 209.81 270.266 209.71 270.446 209.61C271.566 208.97 272.346 208.22 272.786 207.36C273.166 206.62 273.466 206.05 273.686 205.65C273.846 205.65 273.926 205.77 273.926 206.01V209.43H277.016V210.09ZM179.186 257H170.936V256.55C172.176 256.55 172.986 256.34 173.366 255.92C173.746 255.5 173.936 254.73 173.936 253.61V239.15H172.406C170.846 239.15 169.716 239.43 169.016 239.99C168.316 240.55 167.816 241.6 167.516 243.14H166.916L167.096 238.34H182.966L183.146 243.14H182.546C182.266 241.6 181.766 240.55 181.046 239.99C180.346 239.43 179.206 239.15 177.626 239.15H176.096V253.94C176.096 254.92 176.316 255.6 176.756 255.98C177.196 256.36 178.006 256.55 179.186 256.55V257ZM196.443 244.67C195.823 244.77 195.373 245.2 195.093 245.96L191.043 256.31C190.223 258.55 189.463 260.06 188.763 260.84C188.063 261.62 187.233 262.01 186.273 262.01C184.933 262.01 184.263 261.52 184.263 260.54C184.263 259.78 184.723 259.4 185.643 259.4C185.963 259.4 186.313 259.48 186.693 259.64C187.073 259.82 187.353 259.91 187.533 259.91C187.953 259.91 188.533 259.16 189.273 257.66C190.013 256.16 190.383 255.23 190.383 254.87C190.383 254.51 189.803 253.36 188.643 251.42L185.163 245.63C184.843 245.13 184.273 244.8 183.453 244.64V244.31H189.273V244.67C188.113 244.67 187.533 245.07 187.533 245.87C187.533 246.15 187.643 246.48 187.863 246.86L191.343 252.86L193.323 247.76C193.503 247.2 193.633 246.81 193.713 246.59C193.873 246.13 193.953 245.88 193.953 245.84C193.953 245.06 193.513 244.67 192.633 244.67V244.31H196.443V244.67ZM198.895 247.28C198.895 246.18 198.485 245.63 197.665 245.63C197.645 245.63 197.625 245.63 197.605 245.63L196.795 245.66V245.27C197.815 244.97 199.095 244.49 200.635 243.83L200.785 243.89V245.93L200.845 245.99C201.945 244.55 203.375 243.83 205.135 243.83C206.435 243.83 207.535 244.39 208.435 245.51C209.335 246.61 209.785 248.07 209.785 249.89C209.785 251.83 209.235 253.51 208.135 254.93C207.035 256.35 205.615 257.06 203.875 257.06C202.655 257.06 201.625 256.66 200.785 255.86V259.37C200.785 260.25 200.975 260.83 201.355 261.11C201.735 261.41 202.455 261.56 203.515 261.56V262.01H196.705V261.59C198.165 261.59 198.895 260.92 198.895 259.58V247.28ZM200.785 254.42C200.785 254.78 201.115 255.16 201.775 255.56C202.455 255.96 203.165 256.16 203.905 256.16C206.525 256.16 207.835 254.35 207.835 250.73C207.835 249.21 207.485 247.96 206.785 246.98C206.085 246 205.085 245.51 203.785 245.51C203.245 245.51 202.625 245.7 201.925 246.08C201.245 246.46 200.865 246.89 200.785 247.37V254.42ZM221.986 252.59C221.586 253.91 220.846 255.02 219.766 255.92C218.686 256.82 217.436 257.27 216.016 257.27C214.436 257.27 213.156 256.71 212.176 255.59C211.216 254.47 210.736 252.93 210.736 250.97C210.736 248.83 211.296 247.14 212.416 245.9C213.556 244.66 214.916 244.04 216.496 244.04C217.996 244.04 219.196 244.49 220.096 245.39C220.996 246.27 221.446 247.5 221.446 249.08H212.206C212.206 251.16 212.616 252.77 213.436 253.91C214.256 255.03 215.346 255.59 216.706 255.59C218.606 255.59 220.216 254.52 221.536 252.38L221.986 252.59ZM219.076 248.42C218.736 246.1 217.676 244.94 215.896 244.94C213.916 244.94 212.716 246.1 212.296 248.42H219.076ZM230.476 248.15C230.056 245.85 228.996 244.7 227.296 244.7C226.596 244.7 226.026 244.93 225.586 245.39C225.166 245.83 224.956 246.29 224.956 246.77C224.956 247.55 225.386 248.19 226.246 248.69L229.276 250.49C230.936 251.57 231.766 252.64 231.766 253.7C231.766 254.74 231.356 255.6 230.536 256.28C229.716 256.94 228.766 257.27 227.686 257.27C227.186 257.27 226.556 257.17 225.796 256.97C225.056 256.75 224.576 256.64 224.356 256.64C224.156 256.64 223.946 256.8 223.726 257.12H223.426V252.71H223.816C224.436 255.35 225.666 256.67 227.506 256.67C229.166 256.67 229.996 255.92 229.996 254.42C229.996 253.62 229.506 252.94 228.526 252.38L226.906 251.45C225.306 250.51 224.316 249.78 223.936 249.26C223.576 248.72 223.396 248.13 223.396 247.49C223.396 246.51 223.756 245.69 224.476 245.03C225.196 244.37 226.146 244.04 227.326 244.04C227.786 244.04 228.646 244.26 229.906 244.7C230.106 244.7 230.296 244.56 230.476 244.28H230.716L230.836 248.15H230.476ZM243.923 252.86C242.523 255.8 240.643 257.27 238.283 257.27C236.843 257.27 235.603 256.7 234.563 255.56C233.523 254.42 233.003 252.9 233.003 251C233.003 248.92 233.613 247.24 234.833 245.96C236.053 244.68 237.553 244.04 239.333 244.04C240.333 244.04 241.283 244.31 242.183 244.85C243.083 245.37 243.533 246.04 243.533 246.86C243.533 247.66 243.143 248.06 242.363 248.06C241.763 248.06 241.353 247.64 241.133 246.8L240.953 246.17C240.673 245.27 239.963 244.82 238.823 244.82C237.763 244.82 236.813 245.31 235.973 246.29C235.133 247.25 234.713 248.44 234.713 249.86C234.713 251.48 235.143 252.82 236.003 253.88C236.883 254.92 237.943 255.44 239.183 255.44H239.513C240.973 255.32 242.313 254.37 243.533 252.59L243.923 252.86ZM246.593 247.58C246.593 246.42 246.193 245.84 245.393 245.84C245.073 245.84 244.753 245.88 244.433 245.96V245.57C245.833 245.11 247.143 244.63 248.363 244.13L248.483 244.19V246.95C249.843 245.01 251.043 244.04 252.083 244.04C253.143 244.04 253.673 244.55 253.673 245.57C253.673 246.27 253.323 246.62 252.623 246.62C252.283 246.62 251.853 246.41 251.333 245.99C251.073 245.79 250.853 245.69 250.673 245.69C250.333 245.69 249.883 246.05 249.323 246.77C248.763 247.47 248.483 248.04 248.483 248.48V254.45C248.483 255.91 249.363 256.64 251.123 256.64V257H244.373V256.64C245.413 256.48 246.043 256.25 246.263 255.95C246.483 255.63 246.593 255.19 246.593 254.63V247.58ZM253.477 256.64C254.417 256.64 255.057 256.49 255.397 256.19C255.757 255.87 255.937 255.18 255.937 254.12V247.58C255.937 246.42 255.527 245.84 254.707 245.84C254.447 245.84 254.077 245.88 253.597 245.96V245.6C255.217 245.08 256.587 244.59 257.707 244.13L257.827 244.22V254.12C257.827 255.1 257.977 255.77 258.277 256.13C258.577 256.47 259.207 256.64 260.167 256.64V257H253.477V256.64ZM256.657 237.89C257.517 237.89 257.947 238.32 257.947 239.18C257.947 240.04 257.517 240.47 256.657 240.47C255.797 240.47 255.367 240.04 255.367 239.18C255.367 238.32 255.797 237.89 256.657 237.89ZM262.59 247.28C262.59 246.18 262.18 245.63 261.36 245.63C261.34 245.63 261.32 245.63 261.3 245.63L260.49 245.66V245.27C261.51 244.97 262.79 244.49 264.33 243.83L264.48 243.89V245.93L264.54 245.99C265.64 244.55 267.07 243.83 268.83 243.83C270.13 243.83 271.23 244.39 272.13 245.51C273.03 246.61 273.48 248.07 273.48 249.89C273.48 251.83 272.93 253.51 271.83 254.93C270.73 256.35 269.31 257.06 267.57 257.06C266.35 257.06 265.32 256.66 264.48 255.86V259.37C264.48 260.25 264.67 260.83 265.05 261.11C265.43 261.41 266.15 261.56 267.21 261.56V262.01H260.4V261.59C261.86 261.59 262.59 260.92 262.59 259.58V247.28ZM264.48 254.42C264.48 254.78 264.81 255.16 265.47 255.56C266.15 255.96 266.86 256.16 267.6 256.16C270.22 256.16 271.53 254.35 271.53 250.73C271.53 249.21 271.18 247.96 270.48 246.98C269.78 246 268.78 245.51 267.48 245.51C266.94 245.51 266.32 245.7 265.62 246.08C264.94 246.46 264.56 246.89 264.48 247.37V254.42ZM280.941 245.09H277.851V253.28C277.851 254.98 278.411 255.83 279.531 255.83C280.151 255.83 280.721 255.5 281.241 254.84L281.601 255.14C280.841 256.56 279.741 257.27 278.301 257.27C276.741 257.27 275.961 256.08 275.961 253.7V245.09H274.221L274.101 244.91C274.101 244.81 274.191 244.71 274.371 244.61C275.491 243.97 276.271 243.22 276.711 242.36C277.091 241.62 277.391 241.05 277.611 240.65C277.771 240.65 277.851 240.77 277.851 241.01V244.43H280.941V245.09ZM211.69 292H207.46L200.65 283.33L198.49 283.39V288.94C198.49 289.9 198.69 290.58 199.09 290.98C199.51 291.36 200.28 291.55 201.4 291.55V292H193.6V291.55C194.7 291.55 195.43 291.34 195.79 290.92C196.15 290.5 196.33 289.73 196.33 288.61V276.43C196.33 275.43 196.14 274.77 195.76 274.45C195.38 274.13 194.66 273.91 193.6 273.79V273.34H201.37C206.15 273.34 208.54 274.99 208.54 278.29C208.54 280.79 206.78 282.37 203.26 283.03L208.96 290.29C209.6 291.13 210.51 291.55 211.69 291.55V292ZM198.49 282.58C203.61 282.58 206.17 281.13 206.17 278.23C206.17 275.51 204.19 274.15 200.23 274.15C199.47 274.15 198.99 274.21 198.79 274.33C198.59 274.45 198.49 274.73 198.49 275.17V282.58ZM223.269 287.59C222.869 288.91 222.129 290.02 221.049 290.92C219.969 291.82 218.719 292.27 217.299 292.27C215.719 292.27 214.439 291.71 213.459 290.59C212.499 289.47 212.019 287.93 212.019 285.97C212.019 283.83 212.579 282.14 213.699 280.9C214.839 279.66 216.199 279.04 217.779 279.04C219.279 279.04 220.479 279.49 221.379 280.39C222.279 281.27 222.729 282.5 222.729 284.08H213.489C213.489 286.16 213.899 287.77 214.719 288.91C215.539 290.03 216.629 290.59 217.989 290.59C219.889 290.59 221.499 289.52 222.819 287.38L223.269 287.59ZM220.359 283.42C220.019 281.1 218.959 279.94 217.179 279.94C215.199 279.94 213.999 281.1 213.579 283.42H220.359ZM235.688 290.86C234.908 291.8 234.078 292.27 233.198 292.27C232.138 292.27 231.608 291.53 231.608 290.05C229.908 291.53 228.458 292.27 227.258 292.27C226.458 292.27 225.758 292.01 225.158 291.49C224.578 290.97 224.288 290.26 224.288 289.36C224.288 288.26 224.728 287.34 225.608 286.6C226.488 285.86 228.478 284.89 231.578 283.69V282.04C231.578 280.4 230.768 279.58 229.148 279.58C228.628 279.58 228.128 279.73 227.648 280.03C227.168 280.31 226.928 280.68 226.928 281.14C226.928 281.42 226.958 281.75 227.018 282.13C227.038 282.21 227.048 282.28 227.048 282.34C227.048 283.04 226.698 283.39 225.998 283.39C225.218 283.39 224.828 282.99 224.828 282.19C224.828 281.37 225.248 280.64 226.088 280C226.948 279.36 228.048 279.04 229.388 279.04C230.748 279.04 231.748 279.34 232.388 279.94C233.048 280.52 233.378 281.72 233.378 283.54V289.03C233.378 290.25 233.718 290.86 234.398 290.86C234.718 290.86 235.148 290.64 235.688 290.2V290.86ZM231.578 284.35C228.198 285.47 226.508 286.84 226.508 288.46C226.508 290.06 227.158 290.86 228.458 290.86C229.258 290.86 229.978 290.66 230.618 290.26C231.258 289.84 231.578 289.26 231.578 288.52V284.35ZM246.758 287.86C245.358 290.8 243.478 292.27 241.118 292.27C239.678 292.27 238.438 291.7 237.398 290.56C236.358 289.42 235.838 287.9 235.838 286C235.838 283.92 236.448 282.24 237.668 280.96C238.888 279.68 240.388 279.04 242.168 279.04C243.168 279.04 244.118 279.31 245.018 279.85C245.918 280.37 246.368 281.04 246.368 281.86C246.368 282.66 245.978 283.06 245.198 283.06C244.598 283.06 244.188 282.64 243.968 281.8L243.788 281.17C243.508 280.27 242.798 279.82 241.658 279.82C240.598 279.82 239.648 280.31 238.808 281.29C237.968 282.25 237.548 283.44 237.548 284.86C237.548 286.48 237.978 287.82 238.838 288.88C239.718 289.92 240.778 290.44 242.018 290.44H242.348C243.808 290.32 245.148 289.37 246.368 287.59L246.758 287.86ZM254.258 280.09H251.168V288.28C251.168 289.98 251.728 290.83 252.848 290.83C253.468 290.83 254.038 290.5 254.558 289.84L254.918 290.14C254.158 291.56 253.058 292.27 251.618 292.27C250.058 292.27 249.278 291.08 249.278 288.7V280.09H247.538L247.418 279.91C247.418 279.81 247.508 279.71 247.688 279.61C248.808 278.97 249.588 278.22 250.028 277.36C250.408 276.62 250.708 276.05 250.928 275.65C251.088 275.65 251.168 275.77 251.168 276.01V279.43H254.258V280.09ZM207.085 308.79C205.785 308.93 204.985 309.28 204.685 309.84C204.385 310.4 204.235 311.28 204.235 312.48V327.3H203.935L191.335 311.55L191.275 322.86C191.275 324.3 191.475 325.28 191.875 325.8C192.295 326.3 193.045 326.55 194.125 326.55V327H187.495V326.55C188.595 326.55 189.355 326.31 189.775 325.83C190.195 325.33 190.405 324.34 190.405 322.86V310.38C189.565 309.32 188.595 308.79 187.495 308.79V308.34H191.725L203.305 322.92L203.365 312.48C203.365 311.14 203.175 310.19 202.795 309.63C202.415 309.07 201.635 308.79 200.455 308.79V308.34H207.085V308.79ZM218.837 322.59C218.437 323.91 217.697 325.02 216.617 325.92C215.537 326.82 214.287 327.27 212.867 327.27C211.287 327.27 210.007 326.71 209.027 325.59C208.067 324.47 207.587 322.93 207.587 320.97C207.587 318.83 208.147 317.14 209.267 315.9C210.407 314.66 211.767 314.04 213.347 314.04C214.847 314.04 216.047 314.49 216.947 315.39C217.847 316.27 218.297 317.5 218.297 319.08H209.057C209.057 321.16 209.467 322.77 210.287 323.91C211.107 325.03 212.197 325.59 213.557 325.59C215.457 325.59 217.067 324.52 218.387 322.38L218.837 322.59ZM215.927 318.42C215.587 316.1 214.527 314.94 212.747 314.94C210.767 314.94 209.567 316.1 209.147 318.42H215.927ZM225.197 321.36L222.917 324.78C222.557 325.38 222.377 325.77 222.377 325.95C222.377 326.41 222.707 326.64 223.367 326.64V327H219.287V326.64C220.187 326.64 220.927 326.2 221.507 325.32L224.747 320.34L222.077 316.14C221.457 315.16 220.597 314.67 219.497 314.67V314.31H225.317V314.67C225.257 314.67 225.207 314.67 225.167 314.67C224.367 314.67 223.967 314.96 223.967 315.54C223.967 315.98 224.527 317.01 225.647 318.63C226.927 316.79 227.567 315.69 227.567 315.33C227.567 314.89 227.227 314.67 226.547 314.67V314.31H231.017V314.67C229.977 314.67 229.207 315.05 228.707 315.81L226.187 319.56L229.757 325.14C230.317 326.06 231.167 326.56 232.307 326.64V327H226.637V326.64C227.437 326.64 227.837 326.41 227.837 325.95C227.837 325.67 227.677 325.27 227.357 324.75L225.197 321.36ZM239.499 315.09H236.409V323.28C236.409 324.98 236.969 325.83 238.089 325.83C238.709 325.83 239.279 325.5 239.799 324.84L240.159 325.14C239.399 326.56 238.299 327.27 236.859 327.27C235.299 327.27 234.519 326.08 234.519 323.7V315.09H232.779L232.659 314.91C232.659 314.81 232.749 314.71 232.929 314.61C234.049 313.97 234.829 313.22 235.269 312.36C235.649 311.62 235.949 311.05 236.169 310.65C236.329 310.65 236.409 310.77 236.409 311.01V314.43H239.499V315.09ZM247.021 321.84C247.021 325.54 245.551 327.39 242.611 327.39C240.931 327.39 240.091 326.77 240.091 325.53C240.091 324.75 240.421 324.36 241.081 324.36C241.741 324.36 242.211 324.73 242.491 325.47C242.771 326.19 243.041 326.55 243.301 326.55C244.341 326.55 244.861 325.85 244.861 324.45V311.43C244.861 310.43 244.641 309.74 244.201 309.36C243.781 308.98 243.001 308.79 241.861 308.79V308.34H249.961V308.79C248.821 308.79 248.041 308.97 247.621 309.33C247.221 309.67 247.021 310.37 247.021 311.43V321.84ZM258.398 318.15C257.978 315.85 256.918 314.7 255.218 314.7C254.518 314.7 253.948 314.93 253.508 315.39C253.088 315.83 252.878 316.29 252.878 316.77C252.878 317.55 253.308 318.19 254.168 318.69L257.198 320.49C258.858 321.57 259.688 322.64 259.688 323.7C259.688 324.74 259.278 325.6 258.458 326.28C257.638 326.94 256.688 327.27 255.608 327.27C255.108 327.27 254.478 327.17 253.718 326.97C252.978 326.75 252.498 326.64 252.278 326.64C252.078 326.64 251.868 326.8 251.648 327.12H251.348V322.71H251.738C252.358 325.35 253.588 326.67 255.428 326.67C257.088 326.67 257.918 325.92 257.918 324.42C257.918 323.62 257.428 322.94 256.448 322.38L254.828 321.45C253.228 320.51 252.238 319.78 251.858 319.26C251.498 318.72 251.318 318.13 251.318 317.49C251.318 316.51 251.678 315.69 252.398 315.03C253.118 314.37 254.068 314.04 255.248 314.04C255.708 314.04 256.568 314.26 257.828 314.7C258.028 314.7 258.218 314.56 258.398 314.28H258.638L258.758 318.15H258.398ZM208.652 343.79C207.352 343.93 206.552 344.28 206.252 344.84C205.952 345.4 205.802 346.28 205.802 347.48V362.3H205.502L192.902 346.55L192.842 357.86C192.842 359.3 193.042 360.28 193.442 360.8C193.862 361.3 194.612 361.55 195.692 361.55V362H189.062V361.55C190.162 361.55 190.922 361.31 191.342 360.83C191.762 360.33 191.972 359.34 191.972 357.86V345.38C191.132 344.32 190.162 343.79 189.062 343.79V343.34H193.292L204.872 357.92L204.932 347.48C204.932 346.14 204.742 345.19 204.362 344.63C203.982 344.07 203.202 343.79 202.022 343.79V343.34H208.652V343.79ZM220.404 357.59C220.004 358.91 219.264 360.02 218.184 360.92C217.104 361.82 215.854 362.27 214.434 362.27C212.854 362.27 211.574 361.71 210.594 360.59C209.634 359.47 209.154 357.93 209.154 355.97C209.154 353.83 209.714 352.14 210.834 350.9C211.974 349.66 213.334 349.04 214.914 349.04C216.414 349.04 217.614 349.49 218.514 350.39C219.414 351.27 219.864 352.5 219.864 354.08H210.624C210.624 356.16 211.034 357.77 211.854 358.91C212.674 360.03 213.764 360.59 215.124 360.59C217.024 360.59 218.634 359.52 219.954 357.38L220.404 357.59ZM217.494 353.42C217.154 351.1 216.094 349.94 214.314 349.94C212.334 349.94 211.134 351.1 210.714 353.42H217.494ZM228.894 353.15C228.474 350.85 227.414 349.7 225.714 349.7C225.014 349.7 224.444 349.93 224.004 350.39C223.584 350.83 223.374 351.29 223.374 351.77C223.374 352.55 223.804 353.19 224.664 353.69L227.694 355.49C229.354 356.57 230.184 357.64 230.184 358.7C230.184 359.74 229.774 360.6 228.954 361.28C228.134 361.94 227.184 362.27 226.104 362.27C225.604 362.27 224.974 362.17 224.214 361.97C223.474 361.75 222.994 361.64 222.774 361.64C222.574 361.64 222.364 361.8 222.144 362.12H221.844V357.71H222.234C222.854 360.35 224.084 361.67 225.924 361.67C227.584 361.67 228.414 360.92 228.414 359.42C228.414 358.62 227.924 357.94 226.944 357.38L225.324 356.45C223.724 355.51 222.734 354.78 222.354 354.26C221.994 353.72 221.814 353.13 221.814 352.49C221.814 351.51 222.174 350.69 222.894 350.03C223.614 349.37 224.564 349.04 225.744 349.04C226.204 349.04 227.064 349.26 228.324 349.7C228.524 349.7 228.714 349.56 228.894 349.28H229.134L229.254 353.15H228.894ZM237.931 350.09H234.841V358.28C234.841 359.98 235.401 360.83 236.521 360.83C237.141 360.83 237.711 360.5 238.231 359.84L238.591 360.14C237.831 361.56 236.731 362.27 235.291 362.27C233.731 362.27 232.951 361.08 232.951 358.7V350.09H231.211L231.091 349.91C231.091 349.81 231.181 349.71 231.361 349.61C232.481 348.97 233.261 348.22 233.701 347.36C234.081 346.62 234.381 346.05 234.601 345.65C234.761 345.65 234.841 345.77 234.841 346.01V349.43H237.931V350.09ZM245.454 356.84C245.454 360.54 243.984 362.39 241.044 362.39C239.364 362.39 238.524 361.77 238.524 360.53C238.524 359.75 238.854 359.36 239.514 359.36C240.174 359.36 240.644 359.73 240.924 360.47C241.204 361.19 241.474 361.55 241.734 361.55C242.774 361.55 243.294 360.85 243.294 359.45V346.43C243.294 345.43 243.074 344.74 242.634 344.36C242.214 343.98 241.434 343.79 240.294 343.79V343.34H248.394V343.79C247.254 343.79 246.474 343.97 246.054 344.33C245.654 344.67 245.454 345.37 245.454 346.43V356.84ZM256.831 353.15C256.411 350.85 255.351 349.7 253.651 349.7C252.951 349.7 252.381 349.93 251.941 350.39C251.521 350.83 251.311 351.29 251.311 351.77C251.311 352.55 251.741 353.19 252.601 353.69L255.631 355.49C257.291 356.57 258.121 357.64 258.121 358.7C258.121 359.74 257.711 360.6 256.891 361.28C256.071 361.94 255.121 362.27 254.041 362.27C253.541 362.27 252.911 362.17 252.151 361.97C251.411 361.75 250.931 361.64 250.711 361.64C250.511 361.64 250.301 361.8 250.081 362.12H249.781V357.71H250.171C250.791 360.35 252.021 361.67 253.861 361.67C255.521 361.67 256.351 360.92 256.351 359.42C256.351 358.62 255.861 357.94 254.881 357.38L253.261 356.45C251.661 355.51 250.671 354.78 250.291 354.26C249.931 353.72 249.751 353.13 249.751 352.49C249.751 351.51 250.111 350.69 250.831 350.03C251.551 349.37 252.501 349.04 253.681 349.04C254.141 349.04 255.001 349.26 256.261 349.7C256.461 349.7 256.651 349.56 256.831 349.28H257.071L257.191 353.15H256.831ZM201.067 390.49C200.927 389.33 200.647 388.57 200.227 388.21C199.827 387.85 199.077 387.66 197.977 387.64L193.537 387.61V393.94C193.537 395.68 194.507 396.55 196.447 396.55V397H188.557V396.55C189.617 396.55 190.347 396.35 190.747 395.95C191.167 395.53 191.377 394.75 191.377 393.61V381.43C191.377 380.57 191.207 379.94 190.867 379.54C190.547 379.14 189.777 378.89 188.557 378.79V378.34H203.527L203.617 382.39H202.987C202.767 381.11 202.367 380.25 201.787 379.81C201.227 379.37 200.177 379.15 198.637 379.15H194.437C193.837 379.15 193.537 379.47 193.537 380.11V386.8H197.977C199.117 386.8 199.877 386.61 200.257 386.23C200.657 385.83 200.927 385.07 201.067 383.95H201.727V390.49H201.067ZM203.901 396.64C205.501 396.64 206.301 395.94 206.301 394.54V381.1C206.301 379.94 205.821 379.36 204.861 379.36C204.841 379.36 204.821 379.36 204.801 379.36L203.841 379.39V379C204.641 378.8 206.051 378.38 208.071 377.74L208.191 377.8V394.63C208.191 395.97 208.971 396.64 210.531 396.64V397H203.901V396.64ZM224.023 395.98C223.283 396.16 222.643 396.35 222.103 396.55C221.363 396.85 220.773 397.08 220.333 397.24L220.273 394.63C218.653 396.39 217.183 397.27 215.863 397.27C213.803 397.27 212.773 396.05 212.773 393.61V386.53C212.773 385.27 212.103 384.64 210.763 384.64V384.31H214.663V393.52C214.663 394.94 215.443 395.65 217.003 395.65C217.723 395.65 218.423 395.4 219.103 394.9C219.803 394.38 220.153 393.74 220.153 392.98V386.56C220.153 385.34 219.373 384.73 217.813 384.73V384.31H222.043V393.97C222.043 395.09 222.703 395.65 224.023 395.65V395.98ZM231.215 385.09H228.125V393.28C228.125 394.98 228.685 395.83 229.805 395.83C230.425 395.83 230.995 395.5 231.515 394.84L231.875 395.14C231.115 396.56 230.015 397.27 228.575 397.27C227.015 397.27 226.235 396.08 226.235 393.7V385.09H224.495L224.375 384.91C224.375 384.81 224.465 384.71 224.645 384.61C225.765 383.97 226.545 383.22 226.985 382.36C227.365 381.62 227.665 381.05 227.885 380.65C228.045 380.65 228.125 380.77 228.125 381.01V384.43H231.215V385.09ZM238.437 385.09H235.347V393.28C235.347 394.98 235.907 395.83 237.027 395.83C237.647 395.83 238.217 395.5 238.737 394.84L239.097 395.14C238.337 396.56 237.237 397.27 235.797 397.27C234.237 397.27 233.457 396.08 233.457 393.7V385.09H231.717L231.597 384.91C231.597 384.81 231.687 384.71 231.867 384.61C232.987 383.97 233.767 383.22 234.207 382.36C234.587 381.62 234.887 381.05 235.107 380.65C235.267 380.65 235.347 380.77 235.347 381.01V384.43H238.437V385.09ZM250.399 392.59C249.999 393.91 249.259 395.02 248.179 395.92C247.099 396.82 245.849 397.27 244.429 397.27C242.849 397.27 241.569 396.71 240.589 395.59C239.629 394.47 239.149 392.93 239.149 390.97C239.149 388.83 239.709 387.14 240.829 385.9C241.969 384.66 243.329 384.04 244.909 384.04C246.409 384.04 247.609 384.49 248.509 385.39C249.409 386.27 249.859 387.5 249.859 389.08H240.619C240.619 391.16 241.029 392.77 241.849 393.91C242.669 395.03 243.759 395.59 245.119 395.59C247.019 395.59 248.629 394.52 249.949 392.38L250.399 392.59ZM247.489 388.42C247.149 386.1 246.089 384.94 244.309 384.94C242.329 384.94 241.129 386.1 240.709 388.42H247.489ZM252.739 387.58C252.739 386.42 252.339 385.84 251.539 385.84C251.219 385.84 250.899 385.88 250.579 385.96V385.57C251.979 385.11 253.289 384.63 254.509 384.13L254.629 384.19V386.95C255.989 385.01 257.189 384.04 258.229 384.04C259.289 384.04 259.819 384.55 259.819 385.57C259.819 386.27 259.469 386.62 258.769 386.62C258.429 386.62 257.999 386.41 257.479 385.99C257.219 385.79 256.999 385.69 256.819 385.69C256.479 385.69 256.029 386.05 255.469 386.77C254.909 387.47 254.629 388.04 254.629 388.48V394.45C254.629 395.91 255.509 396.64 257.269 396.64V397H250.519V396.64C251.559 396.48 252.189 396.25 252.409 395.95C252.629 395.63 252.739 395.19 252.739 394.63V387.58Z" fill="black"/>
</svg>
