<svg width="431" height="652" viewBox="0 0 431 652" fill="none" xmlns="http://www.w3.org/2000/svg">
<rect width="431" height="652" fill="white"/>
<line x1="123.5" y1="144" x2="123.5" y2="84" stroke="black"/>
<mask id="mask0_3_95" style="mask-type:alpha" maskUnits="userSpaceOnUse" x="91" y="84" width="33" height="70">
<rect x="91.5" y="84.5" width="32" height="69" fill="#C4C4C4" stroke="black"/>
</mask>
<g mask="url(#mask0_3_95)">
<path d="M109.7 129.675C106.43 129.675 103.685 128.985 101.465 127.605C99.2454 126.195 97.5804 124.26 96.4704 121.8C95.3604 119.31 94.8054 116.43 94.8054 113.16C94.8054 109.89 95.3604 107.01 96.4704 104.52C97.5804 102.03 99.2454 100.095 101.465 98.715C103.685 97.305 106.43 96.6 109.7 96.6C111.65 96.6 113.405 96.765 114.965 97.095C116.525 97.425 118.07 97.77 119.6 98.13L119.15 104.7L116.54 104.52V102.45C116.54 102.12 116.42 101.595 116.18 100.875C115.97 100.125 115.79 99.51 115.64 99.03L116.9 100.47C115.88 100.11 114.68 99.795 113.3 99.525C111.95 99.225 110.705 99.075 109.565 99.075C107.225 99.075 105.275 99.705 103.715 100.965C102.155 102.195 100.985 103.875 100.205 106.005C99.4554 108.105 99.0804 110.475 99.0804 113.115C99.0804 115.725 99.4704 118.095 100.25 120.225C101.03 122.355 102.185 124.05 103.715 125.31C105.275 126.57 107.225 127.2 109.565 127.2C110.615 127.2 111.83 127.08 113.21 126.84C114.62 126.6 115.865 126.3 116.945 125.94L115.775 127.38C115.925 126.69 116.09 125.91 116.27 125.04C116.48 124.17 116.585 123.57 116.585 123.24V120.18C116.585 119.79 116.555 119.295 116.495 118.695C116.435 118.095 116.36 117.51 116.27 116.94C116.21 116.37 116.15 115.92 116.09 115.59L117.665 117.075L111.365 116.58L111.59 114.105H116.585C116.885 114.105 117.335 114.09 117.935 114.06C118.535 114.03 119.09 114 119.6 113.97L120.41 114.735C120.35 115.485 120.29 116.28 120.23 117.12C120.17 117.93 120.11 118.725 120.05 119.505C120.02 120.285 120.005 120.99 120.005 121.62V128.145C118.505 128.505 116.9 128.85 115.19 129.18C113.48 129.51 111.65 129.675 109.7 129.675ZM133.748 139.98L130.958 138.855L130.868 138.495C131.378 137.715 131.828 136.95 132.218 136.2C132.608 135.48 132.968 134.7 133.298 133.86C133.658 133.05 134.018 132.135 134.378 131.115C134.768 130.095 135.203 128.91 135.683 127.56L135.773 130.35L128.663 113.97C128.243 112.98 127.763 112.005 127.223 111.045C126.683 110.085 126.143 109.125 125.603 108.165L127.763 109.875L124.163 109.11L124.388 106.77H134.108L134.243 109.11L129.338 109.605L130.418 107.985C130.658 108.855 130.898 109.755 131.138 110.685C131.378 111.585 131.678 112.47 132.038 113.34L137.258 125.985H136.088L140.678 113.97C141.038 113.01 141.353 112.035 141.623 111.045C141.893 110.025 142.148 109.02 142.388 108.03L143.468 109.74L138.563 108.885L138.788 106.77H147.743L147.878 109.11L143.963 109.695L146.078 108.075C145.568 109.185 145.043 110.28 144.503 111.36C143.963 112.44 143.483 113.55 143.063 114.69L133.748 139.98ZM161.031 129.495C158.931 129.495 157.356 129.06 156.306 128.19C155.286 127.29 154.611 126.06 154.281 124.5C153.951 122.91 153.786 121.095 153.786 119.055V112.98C153.786 112.71 153.756 112.32 153.696 111.81C153.636 111.27 153.546 110.685 153.426 110.055C153.336 109.425 153.246 108.855 153.156 108.345L154.776 110.01L150.321 109.11L150.501 106.77H156.621L157.476 107.58C157.446 108.21 157.401 108.945 157.341 109.785C157.281 110.625 157.236 111.45 157.206 112.26C157.176 113.07 157.161 113.76 157.161 114.33V120.765C157.161 122.505 157.491 123.945 158.151 125.085C158.811 126.195 160.011 126.75 161.751 126.75C163.041 126.75 164.106 126.405 164.946 125.715C165.786 125.025 166.416 124.14 166.836 123.06C167.286 121.95 167.511 120.81 167.511 119.64V112.98C167.511 112.71 167.481 112.32 167.421 111.81C167.361 111.27 167.286 110.685 167.196 110.055C167.106 109.425 167.016 108.855 166.926 108.345L168.591 109.965L163.911 109.11L164.091 106.77H170.346L171.201 107.58C171.171 108.21 171.126 108.945 171.066 109.785C171.036 110.625 171.006 111.45 170.976 112.26C170.946 113.07 170.931 113.76 170.931 114.33V121.62C170.931 122.64 170.991 123.675 171.111 124.725C171.261 125.745 171.381 126.78 171.471 127.83L169.851 126.165L174.531 126.66L174.261 129H168.636L167.781 124.005L168.231 125.085C168.051 125.445 167.691 125.985 167.151 126.705C166.641 127.395 165.891 128.04 164.901 128.64C163.941 129.21 162.651 129.495 161.031 129.495ZM177.728 129.225L177.503 127.065L182.543 126.03L180.743 127.695C180.803 127.455 180.878 127.035 180.968 126.435C181.088 125.835 181.193 125.205 181.283 124.545C181.403 123.855 181.463 123.33 181.463 122.97V112.98C181.463 112.59 181.418 112.065 181.328 111.405C181.238 110.715 181.133 110.04 181.013 109.38C180.893 108.69 180.803 108.195 180.743 107.895L182.543 109.965L177.593 109.11L177.818 106.77H183.398L184.253 107.58L184.883 114.33L183.893 111.72C184.343 110.58 184.913 109.62 185.603 108.84C186.323 108.06 187.163 107.46 188.123 107.04C189.083 106.62 190.133 106.41 191.273 106.41C193.403 106.41 195.008 106.845 196.088 107.715C197.168 108.555 197.903 109.755 198.293 111.315C198.683 112.875 198.878 114.705 198.878 116.805V121.62C198.878 122.73 198.923 123.825 199.013 124.905C199.133 125.985 199.238 126.825 199.328 127.425L197.708 126.21L202.793 126.66L202.478 129H196.718C196.598 129 196.268 129.015 195.728 129.045C195.188 129.075 194.588 129.105 193.928 129.135C193.298 129.165 192.728 129.195 192.218 129.225L191.993 127.065L196.493 125.985L194.828 127.02C194.918 126.72 195.008 126.36 195.098 125.94C195.218 125.49 195.308 125.01 195.368 124.5C195.458 123.99 195.503 123.48 195.503 122.97V116.76C195.503 115.44 195.383 114.195 195.143 113.025C194.903 111.825 194.438 110.85 193.748 110.1C193.058 109.35 192.053 108.975 190.733 108.975C188.903 108.975 187.463 109.695 186.413 111.135C185.393 112.575 184.883 114.405 184.883 116.625V121.62C184.883 122.79 184.928 123.99 185.018 125.22C185.108 126.45 185.198 127.335 185.288 127.875L183.623 126.21L188.708 126.66L188.393 129H182.678C182.378 129 181.943 129.015 181.373 129.045C180.803 129.075 180.188 129.105 179.528 129.135C178.898 129.165 178.298 129.195 177.728 129.225ZM214.274 139.575C208.424 139.575 205.499 137.4 205.499 133.05C205.499 132.63 205.934 131.94 206.804 130.98C207.674 130.05 208.769 129.075 210.089 128.055L211.754 128.235C211.034 129.105 210.479 129.795 210.089 130.305C209.729 130.845 209.474 131.265 209.324 131.565C209.204 131.895 209.144 132.225 209.144 132.555C209.144 134.115 209.654 135.255 210.674 135.975C211.694 136.725 213.299 137.1 215.489 137.1C217.379 137.1 218.939 136.65 220.169 135.75C221.399 134.88 222.014 133.725 222.014 132.285C222.014 131.595 221.879 131.1 221.609 130.8C221.369 130.5 220.904 130.305 220.214 130.215L214.364 129.495C213.554 129.375 212.864 129.255 212.294 129.135C211.724 129.045 210.989 128.865 210.089 128.595C209.069 128.265 208.334 127.83 207.884 127.29C207.464 126.75 207.254 126.06 207.254 125.22C207.254 124.62 208.529 123.27 211.079 121.17L212.564 121.665C211.904 122.325 211.439 122.88 211.169 123.33C210.899 123.75 210.764 124.035 210.764 124.185C210.764 124.635 211.034 124.965 211.574 125.175C212.144 125.355 213.299 125.55 215.039 125.76C215.969 125.88 216.989 126.015 218.099 126.165C219.209 126.285 220.259 126.435 221.249 126.615C222.269 126.765 223.079 126.93 223.679 127.11C224.999 127.53 225.659 128.835 225.659 131.025C225.659 132.585 225.134 134.01 224.084 135.3C223.064 136.59 221.699 137.625 219.989 138.405C218.279 139.185 216.374 139.575 214.274 139.575ZM215.084 122.7C213.344 122.7 211.829 122.355 210.539 121.665C209.249 120.975 208.244 120.015 207.524 118.785C206.834 117.555 206.489 116.13 206.489 114.51C206.489 112.86 206.849 111.435 207.569 110.235C208.289 109.035 209.294 108.105 210.584 107.445C211.874 106.755 213.374 106.41 215.084 106.41C216.824 106.41 218.339 106.755 219.629 107.445C220.919 108.135 221.909 109.095 222.599 110.325C223.319 111.525 223.679 112.935 223.679 114.555C223.679 116.175 223.319 117.6 222.599 118.83C221.879 120.06 220.874 121.02 219.584 121.71C218.324 122.37 216.824 122.7 215.084 122.7ZM215.084 120.45C218.384 120.45 220.034 118.485 220.034 114.555C220.034 110.595 218.384 108.615 215.084 108.615C211.754 108.615 210.089 110.58 210.089 114.51C210.089 118.47 211.754 120.45 215.084 120.45ZM226.019 109.11L221.294 109.02L218.504 107.67L225.659 106.23L226.019 109.11ZM248.937 139.98L246.147 138.855L246.057 138.495C246.567 137.715 247.017 136.95 247.407 136.2C247.797 135.48 248.157 134.7 248.487 133.86C248.847 133.05 249.207 132.135 249.567 131.115C249.957 130.095 250.392 128.91 250.872 127.56L250.962 130.35L243.852 113.97C243.432 112.98 242.952 112.005 242.412 111.045C241.872 110.085 241.332 109.125 240.792 108.165L242.952 109.875L239.352 109.11L239.577 106.77H249.297L249.432 109.11L244.527 109.605L245.607 107.985C245.847 108.855 246.087 109.755 246.327 110.685C246.567 111.585 246.867 112.47 247.227 113.34L252.447 125.985H251.277L255.867 113.97C256.227 113.01 256.542 112.035 256.812 111.045C257.082 110.025 257.337 109.02 257.577 108.03L258.657 109.74L253.752 108.885L253.977 106.77H262.932L263.067 109.11L259.152 109.695L261.267 108.075C260.757 109.185 260.232 110.28 259.692 111.36C259.152 112.44 258.672 113.55 258.252 114.69L248.937 139.98ZM275.533 129.45C273.283 129.45 271.393 128.955 269.863 127.965C268.333 126.975 267.178 125.61 266.398 123.87C265.648 122.13 265.273 120.165 265.273 117.975C265.273 115.755 265.618 113.775 266.308 112.035C266.998 110.295 268.063 108.93 269.503 107.94C270.943 106.92 272.758 106.41 274.948 106.41C277.048 106.41 278.713 106.845 279.943 107.715C281.173 108.585 282.058 109.8 282.598 111.36C283.168 112.92 283.453 114.72 283.453 116.76L282.733 118.2H268.153V116.175L281.158 115.185L279.718 116.76C279.718 116.37 279.718 115.995 279.718 115.635C279.748 115.245 279.763 114.825 279.763 114.375C279.763 112.785 279.358 111.42 278.548 110.28C277.738 109.14 276.493 108.57 274.813 108.57C273.703 108.57 272.773 108.855 272.023 109.425C271.273 109.965 270.688 110.7 270.268 111.63C269.848 112.56 269.548 113.565 269.368 114.645C269.188 115.695 269.098 116.745 269.098 117.795C269.098 118.785 269.218 119.805 269.458 120.855C269.698 121.875 270.073 122.835 270.583 123.735C271.093 124.635 271.723 125.355 272.473 125.895C273.253 126.435 274.183 126.705 275.263 126.705C276.673 126.705 278.008 126.495 279.268 126.075C280.558 125.625 281.533 125.205 282.193 124.815L283.363 126.795C283.453 126.705 283.348 126.795 283.048 127.065C282.748 127.305 282.253 127.62 281.563 128.01C280.903 128.37 280.063 128.7 279.043 129C278.053 129.3 276.883 129.45 275.533 129.45ZM298.44 129.45C296.16 129.45 294.255 128.955 292.725 127.965C291.195 126.975 290.04 125.625 289.26 123.915C288.51 122.175 288.135 120.18 288.135 117.93C288.135 115.65 288.51 113.655 289.26 111.945C290.04 110.205 291.195 108.84 292.725 107.85C294.255 106.86 296.16 106.365 298.44 106.365C301.86 106.365 304.41 107.43 306.09 109.56C307.8 111.66 308.655 114.45 308.655 117.93C308.655 120.18 308.265 122.175 307.485 123.915C306.735 125.655 305.595 127.02 304.065 128.01C302.565 128.97 300.69 129.45 298.44 129.45ZM298.44 127.02C300.06 127.02 301.335 126.57 302.265 125.67C303.195 124.77 303.84 123.63 304.2 122.25C304.59 120.84 304.785 119.4 304.785 117.93C304.785 116.43 304.59 114.99 304.2 113.61C303.84 112.2 303.195 111.045 302.265 110.145C301.335 109.245 300.06 108.795 298.44 108.795C296.82 108.795 295.545 109.245 294.615 110.145C293.685 111.015 293.01 112.155 292.59 113.565C292.2 114.945 292.005 116.4 292.005 117.93C292.005 119.43 292.2 120.885 292.59 122.295C293.01 123.675 293.685 124.815 294.615 125.715C295.545 126.585 296.82 127.02 298.44 127.02ZM312.425 129.225L312.2 127.065L317.24 126.03L315.44 127.695C315.5 127.455 315.575 127.035 315.665 126.435C315.785 125.835 315.89 125.205 315.98 124.545C316.1 123.855 316.16 123.33 316.16 122.97V101.19C316.16 100.8 316.115 100.305 316.025 99.705C315.965 99.075 315.875 98.43 315.755 97.77C315.665 97.11 315.575 96.555 315.485 96.105L317.24 98.175L312.29 97.095L312.515 94.845L316.52 94.98H318.995L319.85 95.79C319.82 96.24 319.775 96.87 319.715 97.68C319.685 98.46 319.655 99.285 319.625 100.155C319.595 101.025 319.58 101.82 319.58 102.54V121.62C319.58 122.82 319.625 124.035 319.715 125.265C319.805 126.465 319.895 127.335 319.985 127.875L318.32 126.21L323.405 126.66L323.09 129H317.375C317.075 129 316.64 129.015 316.07 129.045C315.5 129.075 314.885 129.105 314.225 129.135C313.595 129.165 312.995 129.195 312.425 129.225ZM329.39 135.75L328.94 134.13C330.02 133.62 330.86 132.855 331.46 131.835C332.06 130.845 332.21 129.765 331.91 128.595L333.305 129.315C332.525 129.495 331.865 129.465 331.325 129.225C330.785 128.985 330.365 128.61 330.065 128.1C329.795 127.56 329.66 126.96 329.66 126.3C329.66 125.43 329.9 124.71 330.38 124.14C330.86 123.54 331.52 123.24 332.36 123.24C333.41 123.24 334.13 123.645 334.52 124.455C334.94 125.235 335.15 126.15 335.15 127.2C335.15 128.37 334.94 129.555 334.52 130.755C334.1 131.955 333.455 133.005 332.585 133.905C331.745 134.805 330.68 135.42 329.39 135.75Z" fill="black"/>
</g>
</svg>
