<svg width="280" height="331" viewBox="0 0 280 331" fill="none" xmlns="http://www.w3.org/2000/svg">
<path d="M73.7923 13.2C72.4857 13.3333 71.6457 13.64 71.2723 14.12C70.9257 14.5733 70.7523 15.2933 70.7523 16.28V23.84C70.7523 24.2133 69.7257 24.76 67.6723 25.48C65.6457 26.1733 63.7657 26.52 62.0323 26.52C57.7123 26.52 54.3523 25.3467 51.9523 23C49.5523 20.6533 48.3523 17.3867 48.3523 13.2C48.3523 9.76 49.5657 6.8 51.9923 4.32C54.419 1.84 57.4857 0.599998 61.1923 0.599998C62.419 0.599998 63.579 0.759998 64.6723 1.08C65.7657 1.4 66.8723 1.72 67.9923 2.04C68.8723 2.04 69.4457 1.56 69.7123 0.599998H70.5123L70.8323 8.52H70.1123C68.4323 3.96 65.6323 1.68 61.7123 1.68C58.939 1.68 56.539 2.77333 54.5123 4.96C52.5123 7.14667 51.5123 10.1467 51.5123 13.96C51.5123 17.3467 52.5657 20.1067 54.6723 22.24C56.779 24.3733 59.339 25.44 62.3523 25.44C63.659 25.44 64.899 25.1733 66.0723 24.64C67.2723 24.08 67.8723 23.4667 67.8723 22.8V16.72C67.8723 15.2533 67.6057 14.3067 67.0723 13.88C66.539 13.4267 65.579 13.2 64.1923 13.2V12.68H73.7923V13.2ZM92.1017 9.56C91.2751 9.69333 90.6751 10.2667 90.3017 11.28L84.9017 25.08C83.8084 28.0667 82.7951 30.08 81.8617 31.12C80.9284 32.16 79.8217 32.68 78.5417 32.68C76.7551 32.68 75.8617 32.0267 75.8617 30.72C75.8617 29.7067 76.4751 29.2 77.7017 29.2C78.1284 29.2 78.5951 29.3067 79.1017 29.52C79.6084 29.76 79.9817 29.88 80.2217 29.88C80.7817 29.88 81.5551 28.88 82.5417 26.88C83.5284 24.88 84.0217 23.64 84.0217 23.16C84.0217 22.68 83.2484 21.1467 81.7017 18.56L77.0617 10.84C76.6351 10.1733 75.8751 9.73333 74.7817 9.52V9.08H82.5417V9.56C80.9951 9.56 80.2217 10.0933 80.2217 11.16C80.2217 11.5333 80.3684 11.9733 80.6617 12.48L85.3017 20.48L87.9417 13.68C88.1817 12.9333 88.3551 12.4133 88.4617 12.12C88.6751 11.5067 88.7817 11.1733 88.7817 11.12C88.7817 10.08 88.1951 9.56 87.0217 9.56V9.08H92.1017V9.56ZM111.051 24.64C110.064 24.88 109.211 25.1333 108.491 25.4C107.504 25.8 106.717 26.1067 106.131 26.32L106.051 22.84C103.891 25.1867 101.931 26.36 100.171 26.36C97.4241 26.36 96.0508 24.7333 96.0508 21.48V12.04C96.0508 10.36 95.1574 9.52 93.3708 9.52V9.08H98.5708V21.36C98.5708 23.2533 99.6108 24.2 101.691 24.2C102.651 24.2 103.584 23.8667 104.491 23.2C105.424 22.5067 105.891 21.6533 105.891 20.64V12.08C105.891 10.4533 104.851 9.64 102.771 9.64V9.08H108.411V21.96C108.411 23.4533 109.291 24.2 111.051 24.2V24.64ZM115.16 13.32C115.16 11.64 114.613 10.8 113.52 10.8C113.013 10.8 112.653 10.8533 112.44 10.96V10.4C113.96 10 115.587 9.48 117.32 8.84L117.56 8.92V12C119.907 9.81333 121.84 8.72 123.36 8.72C126.08 8.72 127.44 10.6 127.44 14.36V22.96C127.44 24.5067 128.32 25.36 130.08 25.52V26H122.24V25.52C124.027 25.36 124.92 24.28 124.92 22.28V14.44C124.92 12.0133 123.853 10.8 121.72 10.8C120.6 10.8 119.253 11.5867 117.68 13.16V23.48C117.68 24.84 118.613 25.52 120.48 25.52V26H112.52V25.52C114.28 25.52 115.16 24.5467 115.16 22.6V13.32ZM144.469 10.84C144.949 11.9867 145.189 13.12 145.189 14.24C145.189 15.84 144.616 17.12 143.469 18.08C142.322 19.04 141.002 19.52 139.509 19.52L137.589 19.32C137.162 19.3733 136.669 19.6933 136.109 20.28C135.549 20.84 135.269 21.2933 135.269 21.64C135.269 22.3867 136.256 22.76 138.229 22.76L142.789 22.96C145.696 22.96 147.149 24.16 147.149 26.56C147.149 28.2667 146.162 29.6933 144.189 30.84C142.216 32.0133 140.162 32.6 138.029 32.6C136.216 32.6 134.709 32.2667 133.509 31.6C132.309 30.9333 131.709 30.12 131.709 29.16C131.709 27.88 132.936 26.36 135.389 24.6C134.029 24.1467 133.349 23.5733 133.349 22.88C133.349 22.0267 134.389 20.7333 136.469 19C134.282 17.9867 133.189 16.44 133.189 14.36C133.189 12.5467 133.776 11.1067 134.949 10.04C136.149 8.94667 137.602 8.4 139.309 8.4C140.242 8.4 141.229 8.62667 142.269 9.08C143.309 9.50667 144.136 9.72 144.749 9.72H147.469V10.84H144.469ZM139.829 18.76C140.842 18.76 141.629 18.3867 142.189 17.64C142.776 16.8933 143.069 16.0533 143.069 15.12C143.069 13.5467 142.682 12.1733 141.909 11C141.136 9.82667 140.096 9.24 138.789 9.24C137.936 9.24 137.176 9.56 136.509 10.2C135.842 10.8133 135.509 11.6267 135.509 12.64C135.509 16.72 136.949 18.76 139.829 18.76ZM139.589 30.88C141.589 30.88 143.189 30.4933 144.389 29.72C145.589 28.9733 146.189 28.0933 146.189 27.08C146.189 25.7733 144.709 25.12 141.749 25.12C139.482 25.12 137.616 24.9867 136.149 24.72C134.656 26.4533 133.909 27.64 133.909 28.28C133.909 28.92 134.389 29.5067 135.349 30.04C136.309 30.6 137.722 30.88 139.589 30.88ZM188.24 1.96C186.747 2.12 185.68 2.52 185.04 3.16C184.4 3.77333 183.707 4.66667 182.96 5.84L177 15.12V21.92C177 23.2533 177.307 24.1733 177.92 24.68C178.56 25.16 179.707 25.4 181.36 25.4V26H169.88V25.4C171.64 25.4 172.787 25.12 173.32 24.56C173.853 24 174.12 22.9733 174.12 21.48V14.96L168.76 7.08C167.507 5.21333 166.507 3.89333 165.76 3.12C165.04 2.34667 164.24 1.96 163.36 1.96H162.68V1.12H173.2V1.96C171.2 1.96 170.2 2.42667 170.2 3.36C170.2 3.76 170.427 4.30667 170.88 5L176.56 13.52L182.2 4.68C182.547 4.09333 182.72 3.62667 182.72 3.28C182.72 2.4 181.827 1.96 180.04 1.96V1.12H188.24V1.96ZM204.869 20.12C204.336 21.88 203.349 23.36 201.909 24.56C200.469 25.76 198.803 26.36 196.909 26.36C194.803 26.36 193.096 25.6133 191.789 24.12C190.509 22.6267 189.869 20.5733 189.869 17.96C189.869 15.1067 190.616 12.8533 192.109 11.2C193.629 9.54667 195.443 8.72 197.549 8.72C199.549 8.72 201.149 9.32 202.349 10.52C203.549 11.6933 204.149 13.3333 204.149 15.44H191.829C191.829 18.2133 192.376 20.36 193.469 21.88C194.563 23.3733 196.016 24.12 197.829 24.12C200.363 24.12 202.509 22.6933 204.269 19.84L204.869 20.12ZM200.989 14.56C200.536 11.4667 199.123 9.92 196.749 9.92C194.109 9.92 192.509 11.4667 191.949 14.56H200.989ZM223.269 17.44C223.269 19.7867 222.496 21.8667 220.949 23.68C219.429 25.4667 217.456 26.36 215.029 26.36C212.602 26.36 210.602 25.52 209.029 23.84C207.482 22.1333 206.709 20.0267 206.709 17.52C206.709 14.9867 207.469 12.8933 208.989 11.24C210.509 9.56 212.456 8.72 214.829 8.72C217.336 8.72 219.362 9.50667 220.909 11.08C222.482 12.6267 223.269 14.7467 223.269 17.44ZM220.549 18.52C220.549 16.0667 219.976 14 218.829 12.32C217.709 10.6133 216.282 9.76 214.549 9.76C213.136 9.76 211.936 10.3067 210.949 11.4C209.962 12.4667 209.469 13.88 209.469 15.64C209.469 18.4133 210.002 20.72 211.069 22.56C212.136 24.4 213.602 25.32 215.469 25.32C216.936 25.32 218.149 24.72 219.109 23.52C220.069 22.32 220.549 20.6533 220.549 18.52ZM225.218 25.52C227.351 25.52 228.418 24.5867 228.418 22.72V4.8C228.418 3.25333 227.778 2.48 226.498 2.48C226.471 2.48 226.445 2.48 226.418 2.48L225.138 2.52V2C226.205 1.73333 228.085 1.17333 230.778 0.319999L230.938 0.399998V22.84C230.938 24.6267 231.978 25.52 234.058 25.52V26H225.218V25.52ZM0.89875 72.4C2.52542 72.4 3.61875 72.1733 4.17875 71.72C4.76542 71.2667 5.05875 70.3733 5.05875 69.04V51.96C5.05875 50.5733 4.76542 49.6667 4.17875 49.24C3.61875 48.7867 2.52542 48.56 0.89875 48.56V48.12H12.0588V48.56C10.3254 48.56 9.17875 48.8267 8.61875 49.36C8.05875 49.8667 7.77875 50.7333 7.77875 51.96V69.04C7.77875 70.2667 8.07208 71.1333 8.65875 71.64C9.24542 72.1467 10.3788 72.4 12.0588 72.4V73H0.89875V72.4ZM16.0778 60.32C16.0778 58.64 15.5311 57.8 14.4378 57.8C13.9311 57.8 13.5711 57.8533 13.3578 57.96V57.4C14.8778 57 16.5045 56.48 18.2378 55.84L18.4778 55.92V59C20.8245 56.8133 22.7578 55.72 24.2778 55.72C26.9978 55.72 28.3578 57.6 28.3578 61.36V69.96C28.3578 71.5067 29.2378 72.36 30.9978 72.52V73H23.1578V72.52C24.9445 72.36 25.8378 71.28 25.8378 69.28V61.44C25.8378 59.0133 24.7711 57.8 22.6378 57.8C21.5178 57.8 20.1711 58.5867 18.5978 60.16V70.48C18.5978 71.84 19.5311 72.52 21.3978 72.52V73H13.4378V72.52C15.1978 72.52 16.0778 71.5467 16.0778 69.6V60.32ZM42.9069 61.2C42.3469 58.1333 40.9335 56.6 38.6669 56.6C37.7335 56.6 36.9735 56.9067 36.3869 57.52C35.8269 58.1067 35.5469 58.72 35.5469 59.36C35.5469 60.4 36.1202 61.2533 37.2669 61.92L41.3069 64.32C43.5202 65.76 44.6269 67.1867 44.6269 68.6C44.6269 69.9867 44.0802 71.1333 42.9869 72.04C41.8935 72.92 40.6269 73.36 39.1869 73.36C38.5202 73.36 37.6802 73.2267 36.6669 72.96C35.6802 72.6667 35.0402 72.52 34.7469 72.52C34.4802 72.52 34.2002 72.7333 33.9069 73.16H33.5069V67.28H34.0269C34.8535 70.8 36.4935 72.56 38.9469 72.56C41.1602 72.56 42.2669 71.56 42.2669 69.56C42.2669 68.4933 41.6135 67.5867 40.3069 66.84L38.1469 65.6C36.0135 64.3467 34.6935 63.3733 34.1869 62.68C33.7069 61.96 33.4669 61.1733 33.4669 60.32C33.4669 59.0133 33.9469 57.92 34.9069 57.04C35.8669 56.16 37.1335 55.72 38.7069 55.72C39.3202 55.72 40.4669 56.0133 42.1469 56.6C42.4135 56.6 42.6669 56.4133 42.9069 56.04H43.2269L43.3869 61.2H42.9069ZM62.7563 71.48C61.7163 72.7333 60.6096 73.36 59.4363 73.36C58.0229 73.36 57.3163 72.3733 57.3163 70.4C55.0496 72.3733 53.1163 73.36 51.5163 73.36C50.4496 73.36 49.5163 73.0133 48.7163 72.32C47.9429 71.6267 47.5563 70.68 47.5563 69.48C47.5563 68.0133 48.1429 66.7867 49.3163 65.8C50.4896 64.8133 53.1429 63.52 57.2763 61.92V59.72C57.2763 57.5333 56.1963 56.44 54.0363 56.44C53.3429 56.44 52.6763 56.64 52.0362 57.04C51.3963 57.4133 51.0763 57.9067 51.0763 58.52C51.0763 58.8933 51.1163 59.3333 51.1963 59.84C51.2229 59.9467 51.2363 60.04 51.2363 60.12C51.2363 61.0533 50.7696 61.52 49.8363 61.52C48.7963 61.52 48.2763 60.9867 48.2763 59.92C48.2763 58.8267 48.8363 57.8533 49.9563 57C51.1029 56.1467 52.5696 55.72 54.3563 55.72C56.1696 55.72 57.5029 56.12 58.3563 56.92C59.2363 57.6933 59.6763 59.2933 59.6763 61.72V69.04C59.6763 70.6667 60.1296 71.48 61.0363 71.48C61.4629 71.48 62.0363 71.1867 62.7563 70.6V71.48ZM57.2763 62.8C52.7696 64.2933 50.5163 66.12 50.5163 68.28C50.5163 70.4133 51.3829 71.48 53.1163 71.48C54.1829 71.48 55.1429 71.2133 55.9963 70.68C56.8496 70.12 57.2763 69.3467 57.2763 68.36V62.8ZM72.4359 57.12H68.3159V68.04C68.3159 70.3067 69.0626 71.44 70.5559 71.44C71.3826 71.44 72.1426 71 72.8359 70.12L73.3159 70.52C72.3026 72.4133 70.8359 73.36 68.9159 73.36C66.8359 73.36 65.7959 71.7733 65.7959 68.6V57.12H63.4759L63.3159 56.88C63.3159 56.7467 63.4359 56.6133 63.6759 56.48C65.1693 55.6267 66.2093 54.6267 66.7959 53.48C67.3026 52.4933 67.7026 51.7333 67.9959 51.2C68.2093 51.2 68.3159 51.36 68.3159 51.68V56.24H72.4359V57.12ZM73.8656 72.52C75.119 72.52 75.9723 72.32 76.4256 71.92C76.9056 71.4933 77.1456 70.5733 77.1456 69.16V60.44C77.1456 58.8933 76.599 58.12 75.5056 58.12C75.159 58.12 74.6656 58.1733 74.0256 58.28V57.8C76.1856 57.1067 78.0123 56.4533 79.5056 55.84L79.6656 55.96V69.16C79.6656 70.4667 79.8656 71.36 80.2656 71.84C80.6656 72.2933 81.5056 72.52 82.7856 72.52V73H73.8656V72.52ZM78.1056 47.52C79.2523 47.52 79.8256 48.0933 79.8256 49.24C79.8256 50.3867 79.2523 50.96 78.1056 50.96C76.959 50.96 76.3856 50.3867 76.3856 49.24C76.3856 48.0933 76.959 47.52 78.1056 47.52ZM100.295 71.48C99.2553 72.7333 98.1486 73.36 96.9753 73.36C95.562 73.36 94.8553 72.3733 94.8553 70.4C92.5886 72.3733 90.6553 73.36 89.0553 73.36C87.9886 73.36 87.0553 73.0133 86.2553 72.32C85.482 71.6267 85.0953 70.68 85.0953 69.48C85.0953 68.0133 85.682 66.7867 86.8553 65.8C88.0286 64.8133 90.682 63.52 94.8153 61.92V59.72C94.8153 57.5333 93.7353 56.44 91.5753 56.44C90.882 56.44 90.2153 56.64 89.5753 57.04C88.9353 57.4133 88.6153 57.9067 88.6153 58.52C88.6153 58.8933 88.6553 59.3333 88.7353 59.84C88.762 59.9467 88.7753 60.04 88.7753 60.12C88.7753 61.0533 88.3086 61.52 87.3753 61.52C86.3353 61.52 85.8153 60.9867 85.8153 59.92C85.8153 58.8267 86.3753 57.8533 87.4953 57C88.642 56.1467 90.1086 55.72 91.8953 55.72C93.7086 55.72 95.042 56.12 95.8953 56.92C96.7753 57.6933 97.2153 59.2933 97.2153 61.72V69.04C97.2153 70.6667 97.6686 71.48 98.5753 71.48C99.002 71.48 99.5753 71.1867 100.295 70.6V71.48ZM94.8153 62.8C90.3086 64.2933 88.0553 66.12 88.0553 68.28C88.0553 70.4133 88.922 71.48 90.6553 71.48C91.722 71.48 92.682 71.2133 93.5353 70.68C94.3886 70.12 94.8153 69.3467 94.8153 68.36V62.8ZM103.295 51.48C103.295 50.1733 102.655 49.52 101.375 49.52C101.348 49.52 101.322 49.52 101.295 49.52H100.495V49C102.148 48.5467 103.855 48.0133 105.615 47.4L105.815 47.48V59.28C106.028 58.5867 106.695 57.8267 107.815 57C108.962 56.1467 110.108 55.72 111.255 55.72C113.282 55.72 114.908 56.52 116.135 58.12C117.362 59.6933 117.975 61.6667 117.975 64.04C117.975 66.5733 117.135 68.76 115.455 70.6C113.802 72.44 111.575 73.36 108.775 73.36C107.682 73.36 106.495 73.12 105.215 72.64C103.935 72.16 103.295 71.6 103.295 70.96V51.48ZM105.815 70.36C105.815 70.8933 106.282 71.36 107.215 71.76C108.148 72.16 108.988 72.36 109.735 72.36C111.468 72.36 112.802 71.6667 113.735 70.28C114.695 68.8933 115.175 67.2133 115.175 65.24C115.175 60.3067 113.402 57.84 109.855 57.84C108.895 57.84 107.975 58.2 107.095 58.92C106.242 59.64 105.815 60.48 105.815 61.44V70.36ZM119.964 72.52C122.097 72.52 123.164 71.5867 123.164 69.72V51.8C123.164 50.2533 122.524 49.48 121.244 49.48C121.217 49.48 121.191 49.48 121.164 49.48L119.884 49.52V49C120.951 48.7333 122.831 48.1733 125.524 47.32L125.684 47.4V69.84C125.684 71.6267 126.724 72.52 128.804 72.52V73H119.964V72.52ZM147.434 56.56C146.607 56.6933 146.007 57.2667 145.634 58.28L140.234 72.08C139.14 75.0667 138.127 77.08 137.194 78.12C136.26 79.16 135.154 79.68 133.874 79.68C132.087 79.68 131.194 79.0267 131.194 77.72C131.194 76.7067 131.807 76.2 133.034 76.2C133.46 76.2 133.927 76.3067 134.434 76.52C134.94 76.76 135.314 76.88 135.554 76.88C136.114 76.88 136.887 75.88 137.874 73.88C138.86 71.88 139.354 70.64 139.354 70.16C139.354 69.68 138.58 68.1467 137.034 65.56L132.394 57.84C131.967 57.1733 131.207 56.7333 130.114 56.52V56.08H137.874V56.56C136.327 56.56 135.554 57.0933 135.554 58.16C135.554 58.5333 135.7 58.9733 135.994 59.48L140.634 67.48L143.274 60.68C143.514 59.9333 143.687 59.4133 143.794 59.12C144.007 58.5067 144.114 58.1733 144.114 58.12C144.114 57.08 143.527 56.56 142.354 56.56V56.08H147.434V56.56ZM177.222 67.48C175.356 71.4 172.849 73.36 169.702 73.36C167.782 73.36 166.129 72.6 164.742 71.08C163.356 69.56 162.662 67.5333 162.662 65C162.662 62.2267 163.476 59.9867 165.102 58.28C166.729 56.5733 168.729 55.72 171.102 55.72C172.436 55.72 173.702 56.08 174.902 56.8C176.102 57.4933 176.702 58.3867 176.702 59.48C176.702 60.5467 176.182 61.08 175.142 61.08C174.342 61.08 173.796 60.52 173.502 59.4L173.262 58.56C172.889 57.36 171.942 56.76 170.422 56.76C169.009 56.76 167.742 57.4133 166.622 58.72C165.502 60 164.942 61.5867 164.942 63.48C164.942 65.64 165.516 67.4267 166.662 68.84C167.836 70.2267 169.249 70.92 170.902 70.92H171.342C173.289 70.76 175.076 69.4933 176.702 67.12L177.222 67.48ZM196.422 71.64C195.435 71.88 194.582 72.1333 193.862 72.4C192.875 72.8 192.089 73.1067 191.502 73.32L191.422 69.84C189.262 72.1867 187.302 73.36 185.542 73.36C182.795 73.36 181.422 71.7333 181.422 68.48V59.04C181.422 57.36 180.529 56.52 178.742 56.52V56.08H183.942V68.36C183.942 70.2533 184.982 71.2 187.062 71.2C188.022 71.2 188.955 70.8667 189.862 70.2C190.795 69.5067 191.262 68.6533 191.262 67.64V59.08C191.262 57.4533 190.222 56.64 188.142 56.64V56.08H193.782V68.96C193.782 70.4533 194.662 71.2 196.422 71.2V71.64ZM200.371 60.44C200.371 58.8933 199.838 58.12 198.771 58.12C198.344 58.12 197.918 58.1733 197.491 58.28V57.76C199.358 57.1467 201.104 56.5067 202.731 55.84L202.891 55.92V59.6C204.704 57.0133 206.304 55.72 207.691 55.72C209.104 55.72 209.811 56.4 209.811 57.76C209.811 58.6933 209.344 59.16 208.411 59.16C207.958 59.16 207.384 58.88 206.691 58.32C206.344 58.0533 206.051 57.92 205.811 57.92C205.358 57.92 204.758 58.4 204.011 59.36C203.264 60.2933 202.891 61.0533 202.891 61.64V69.6C202.891 71.5467 204.064 72.52 206.411 72.52V73H197.411V72.52C198.798 72.3067 199.638 72 199.931 71.6C200.224 71.1733 200.371 70.5867 200.371 69.84V60.44ZM210.35 72.52C211.603 72.52 212.457 72.32 212.91 71.92C213.39 71.4933 213.63 70.5733 213.63 69.16V60.44C213.63 58.8933 213.083 58.12 211.99 58.12C211.643 58.12 211.15 58.1733 210.51 58.28V57.8C212.67 57.1067 214.497 56.4533 215.99 55.84L216.15 55.96V69.16C216.15 70.4667 216.35 71.36 216.75 71.84C217.15 72.2933 217.99 72.52 219.27 72.52V73H210.35V72.52ZM214.59 47.52C215.737 47.52 216.31 48.0933 216.31 49.24C216.31 50.3867 215.737 50.96 214.59 50.96C213.443 50.96 212.87 50.3867 212.87 49.24C212.87 48.0933 213.443 47.52 214.59 47.52ZM237.82 64.44C237.82 66.7867 237.046 68.8667 235.5 70.68C233.98 72.4667 232.006 73.36 229.58 73.36C227.153 73.36 225.153 72.52 223.58 70.84C222.033 69.1333 221.26 67.0267 221.26 64.52C221.26 61.9867 222.02 59.8933 223.54 58.24C225.06 56.56 227.006 55.72 229.38 55.72C231.886 55.72 233.913 56.5067 235.46 58.08C237.033 59.6267 237.82 61.7467 237.82 64.44ZM235.1 65.52C235.1 63.0667 234.526 61 233.38 59.32C232.26 57.6133 230.833 56.76 229.1 56.76C227.686 56.76 226.486 57.3067 225.5 58.4C224.513 59.4667 224.02 60.88 224.02 62.64C224.02 65.4133 224.553 67.72 225.62 69.56C226.686 71.4 228.153 72.32 230.02 72.32C231.486 72.32 232.7 71.72 233.66 70.52C234.62 69.32 235.1 67.6533 235.1 65.52ZM256.969 71.64C255.982 71.88 255.129 72.1333 254.409 72.4C253.422 72.8 252.635 73.1067 252.049 73.32L251.969 69.84C249.809 72.1867 247.849 73.36 246.089 73.36C243.342 73.36 241.969 71.7333 241.969 68.48V59.04C241.969 57.36 241.075 56.52 239.289 56.52V56.08H244.489V68.36C244.489 70.2533 245.529 71.2 247.609 71.2C248.569 71.2 249.502 70.8667 250.409 70.2C251.342 69.5067 251.809 68.6533 251.809 67.64V59.08C251.809 57.4533 250.769 56.64 248.689 56.64V56.08H254.329V68.96C254.329 70.4533 255.209 71.2 256.969 71.2V71.64ZM269.118 61.2C268.558 58.1333 267.144 56.6 264.878 56.6C263.944 56.6 263.184 56.9067 262.598 57.52C262.038 58.1067 261.758 58.72 261.758 59.36C261.758 60.4 262.331 61.2533 263.478 61.92L267.518 64.32C269.731 65.76 270.838 67.1867 270.838 68.6C270.838 69.9867 270.291 71.1333 269.198 72.04C268.104 72.92 266.838 73.36 265.398 73.36C264.731 73.36 263.891 73.2267 262.878 72.96C261.891 72.6667 261.251 72.52 260.958 72.52C260.691 72.52 260.411 72.7333 260.118 73.16H259.718V67.28H260.238C261.064 70.8 262.704 72.56 265.158 72.56C267.371 72.56 268.478 71.56 268.478 69.56C268.478 68.4933 267.824 67.5867 266.518 66.84L264.358 65.6C262.224 64.3467 260.904 63.3733 260.398 62.68C259.918 61.96 259.678 61.1733 259.678 60.32C259.678 59.0133 260.158 57.92 261.118 57.04C262.078 56.16 263.344 55.72 264.918 55.72C265.531 55.72 266.678 56.0133 268.358 56.6C268.624 56.6 268.878 56.4133 269.118 56.04H269.438L269.598 61.2H269.118ZM275.007 71.32C275.007 69.9333 275.701 69.24 277.087 69.24C278.474 69.24 279.167 69.9333 279.167 71.32C279.167 72.7067 278.474 73.4 277.087 73.4C275.701 73.4 275.007 72.7067 275.007 71.32ZM102.552 150.7C102.552 153.783 101.327 155.325 98.8768 155.325C97.4768 155.325 96.7768 154.808 96.7768 153.775C96.7768 153.125 97.0518 152.8 97.6018 152.8C98.1518 152.8 98.5434 153.108 98.7768 153.725C99.0101 154.325 99.2351 154.625 99.4518 154.625C100.318 154.625 100.752 154.042 100.752 152.875V142.025C100.752 141.192 100.568 140.617 100.202 140.3C99.8518 139.983 99.2018 139.825 98.2518 139.825V139.45H105.002V139.825C104.052 139.825 103.402 139.975 103.052 140.275C102.718 140.558 102.552 141.142 102.552 142.025V150.7ZM115.308 154.05C114.658 154.833 113.966 155.225 113.233 155.225C112.349 155.225 111.908 154.608 111.908 153.375C110.491 154.608 109.283 155.225 108.283 155.225C107.616 155.225 107.033 155.008 106.533 154.575C106.049 154.142 105.808 153.55 105.808 152.8C105.808 151.883 106.174 151.117 106.908 150.5C107.641 149.883 109.299 149.075 111.883 148.075V146.7C111.883 145.333 111.208 144.65 109.858 144.65C109.424 144.65 109.008 144.775 108.608 145.025C108.208 145.258 108.008 145.567 108.008 145.95C108.008 146.183 108.033 146.458 108.083 146.775C108.099 146.842 108.108 146.9 108.108 146.95C108.108 147.533 107.816 147.825 107.233 147.825C106.583 147.825 106.258 147.492 106.258 146.825C106.258 146.142 106.608 145.533 107.308 145C108.024 144.467 108.941 144.2 110.058 144.2C111.191 144.2 112.024 144.45 112.558 144.95C113.108 145.433 113.383 146.433 113.383 147.95V152.525C113.383 153.542 113.666 154.05 114.233 154.05C114.499 154.05 114.858 153.867 115.308 153.5V154.05ZM111.883 148.625C109.066 149.558 107.658 150.7 107.658 152.05C107.658 153.383 108.199 154.05 109.283 154.05C109.949 154.05 110.549 153.883 111.083 153.55C111.616 153.2 111.883 152.717 111.883 152.1V148.625ZM126.057 144.725C125.391 144.775 124.841 145.383 124.407 146.55L121.557 154.125C121.257 154.908 121.074 155.3 121.007 155.3C120.941 155.3 120.757 154.933 120.457 154.2C119.907 152.817 119.232 151.192 118.432 149.325C117.632 147.442 117.082 146.208 116.782 145.625C116.482 145.025 115.991 144.725 115.307 144.725V144.425H119.907V144.725C119.074 144.808 118.657 145.167 118.657 145.8C118.657 146.017 118.724 146.283 118.857 146.6L121.307 152.6C123.041 148.05 123.907 145.633 123.907 145.35C123.907 144.933 123.532 144.725 122.782 144.725V144.425H126.057V144.725ZM136.476 154.05C135.826 154.833 135.134 155.225 134.401 155.225C133.517 155.225 133.076 154.608 133.076 153.375C131.659 154.608 130.451 155.225 129.451 155.225C128.784 155.225 128.201 155.008 127.701 154.575C127.217 154.142 126.976 153.55 126.976 152.8C126.976 151.883 127.342 151.117 128.076 150.5C128.809 149.883 130.467 149.075 133.051 148.075V146.7C133.051 145.333 132.376 144.65 131.026 144.65C130.592 144.65 130.176 144.775 129.776 145.025C129.376 145.258 129.176 145.567 129.176 145.95C129.176 146.183 129.201 146.458 129.251 146.775C129.267 146.842 129.276 146.9 129.276 146.95C129.276 147.533 128.984 147.825 128.401 147.825C127.751 147.825 127.426 147.492 127.426 146.825C127.426 146.142 127.776 145.533 128.476 145C129.192 144.467 130.109 144.2 131.226 144.2C132.359 144.2 133.192 144.45 133.726 144.95C134.276 145.433 134.551 146.433 134.551 147.95V152.525C134.551 153.542 134.834 154.05 135.401 154.05C135.667 154.05 136.026 153.867 136.476 153.5V154.05ZM133.051 148.625C130.234 149.558 128.826 150.7 128.826 152.05C128.826 153.383 129.367 154.05 130.451 154.05C131.117 154.05 131.717 153.883 132.251 153.55C132.784 153.2 133.051 152.717 133.051 152.1V148.625ZM143.125 147.625C142.775 145.708 141.892 144.75 140.475 144.75C139.892 144.75 139.417 144.942 139.05 145.325C138.7 145.692 138.525 146.075 138.525 146.475C138.525 147.125 138.884 147.658 139.6 148.075L142.125 149.575C143.509 150.475 144.2 151.367 144.2 152.25C144.2 153.117 143.859 153.833 143.175 154.4C142.492 154.95 141.7 155.225 140.8 155.225C140.384 155.225 139.859 155.142 139.225 154.975C138.609 154.792 138.209 154.7 138.025 154.7C137.859 154.7 137.684 154.833 137.5 155.1H137.25V151.425H137.575C138.092 153.625 139.117 154.725 140.65 154.725C142.034 154.725 142.725 154.1 142.725 152.85C142.725 152.183 142.317 151.617 141.5 151.15L140.15 150.375C138.817 149.592 137.992 148.983 137.675 148.55C137.375 148.1 137.225 147.608 137.225 147.075C137.225 146.258 137.525 145.575 138.125 145.025C138.725 144.475 139.517 144.2 140.5 144.2C140.884 144.2 141.6 144.383 142.65 144.75C142.817 144.75 142.975 144.633 143.125 144.4H143.325L143.425 147.625H143.125ZM154.331 151.55C153.165 154 151.598 155.225 149.631 155.225C148.431 155.225 147.398 154.75 146.531 153.8C145.665 152.85 145.231 151.583 145.231 150C145.231 148.267 145.74 146.867 146.756 145.8C147.773 144.733 149.023 144.2 150.506 144.2C151.34 144.2 152.131 144.425 152.881 144.875C153.631 145.308 154.006 145.867 154.006 146.55C154.006 147.217 153.681 147.55 153.031 147.55C152.531 147.55 152.19 147.2 152.006 146.5L151.856 145.975C151.623 145.225 151.031 144.85 150.081 144.85C149.198 144.85 148.406 145.258 147.706 146.075C147.006 146.875 146.656 147.867 146.656 149.05C146.656 150.4 147.015 151.517 147.731 152.4C148.465 153.267 149.348 153.7 150.381 153.7H150.656C151.873 153.6 152.99 152.808 154.006 151.325L154.331 151.55ZM156.556 147.15C156.556 146.183 156.223 145.7 155.556 145.7C155.289 145.7 155.023 145.733 154.756 145.8V145.475C155.923 145.092 157.014 144.692 158.031 144.275L158.131 144.325V146.625C159.264 145.008 160.264 144.2 161.131 144.2C162.014 144.2 162.456 144.625 162.456 145.475C162.456 146.058 162.164 146.35 161.581 146.35C161.298 146.35 160.939 146.175 160.506 145.825C160.289 145.658 160.106 145.575 159.956 145.575C159.673 145.575 159.298 145.875 158.831 146.475C158.364 147.058 158.131 147.533 158.131 147.9V152.875C158.131 154.092 158.864 154.7 160.331 154.7V155H154.706V154.7C155.573 154.567 156.098 154.375 156.281 154.125C156.464 153.858 156.556 153.492 156.556 153.025V147.15ZM162.293 154.7C163.076 154.7 163.61 154.575 163.893 154.325C164.193 154.058 164.343 153.483 164.343 152.6V147.15C164.343 146.183 164.001 145.7 163.318 145.7C163.101 145.7 162.793 145.733 162.393 145.8V145.5C163.743 145.067 164.885 144.658 165.818 144.275L165.918 144.35V152.6C165.918 153.417 166.043 153.975 166.293 154.275C166.543 154.558 167.068 154.7 167.868 154.7V155H162.293V154.7ZM164.943 139.075C165.66 139.075 166.018 139.433 166.018 140.15C166.018 140.867 165.66 141.225 164.943 141.225C164.226 141.225 163.868 140.867 163.868 140.15C163.868 139.433 164.226 139.075 164.943 139.075ZM169.887 146.9C169.887 145.983 169.545 145.525 168.862 145.525C168.845 145.525 168.828 145.525 168.812 145.525L168.137 145.55V145.225C168.987 144.975 170.053 144.575 171.337 144.025L171.462 144.075V145.775L171.512 145.825C172.428 144.625 173.62 144.025 175.087 144.025C176.17 144.025 177.087 144.492 177.837 145.425C178.587 146.342 178.962 147.558 178.962 149.075C178.962 150.692 178.503 152.092 177.587 153.275C176.67 154.458 175.487 155.05 174.037 155.05C173.02 155.05 172.162 154.717 171.462 154.05V156.975C171.462 157.708 171.62 158.192 171.937 158.425C172.253 158.675 172.853 158.8 173.737 158.8V159.175H168.062V158.825C169.278 158.825 169.887 158.267 169.887 157.15V146.9ZM171.462 152.85C171.462 153.15 171.737 153.467 172.287 153.8C172.853 154.133 173.445 154.3 174.062 154.3C176.245 154.3 177.337 152.792 177.337 149.775C177.337 148.508 177.045 147.467 176.462 146.65C175.878 145.833 175.045 145.425 173.962 145.425C173.512 145.425 172.995 145.583 172.412 145.9C171.845 146.217 171.528 146.575 171.462 146.975V152.85ZM185.18 145.075H182.605V151.9C182.605 153.317 183.071 154.025 184.005 154.025C184.521 154.025 184.996 153.75 185.43 153.2L185.73 153.45C185.096 154.633 184.18 155.225 182.98 155.225C181.68 155.225 181.03 154.233 181.03 152.25V145.075H179.58L179.48 144.925C179.48 144.842 179.555 144.758 179.705 144.675C180.638 144.142 181.288 143.517 181.655 142.8C181.971 142.183 182.221 141.708 182.405 141.375C182.538 141.375 182.605 141.475 182.605 141.675V144.525H185.18V145.075ZM103.655 190H96.7803V189.625C97.8136 189.625 98.4886 189.45 98.8053 189.1C99.1219 188.75 99.2803 188.108 99.2803 187.175V175.125H98.0053C96.7053 175.125 95.7636 175.358 95.1803 175.825C94.5969 176.292 94.1803 177.167 93.9303 178.45H93.4303L93.5803 174.45H106.805L106.955 178.45H106.455C106.222 177.167 105.805 176.292 105.205 175.825C104.622 175.358 103.672 175.125 102.355 175.125H101.08V187.45C101.08 188.267 101.264 188.833 101.63 189.15C101.997 189.467 102.672 189.625 103.655 189.625V190ZM118.036 179.725C117.519 179.808 117.144 180.167 116.911 180.8L113.536 189.425C112.852 191.292 112.219 192.55 111.636 193.2C111.052 193.85 110.361 194.175 109.561 194.175C108.444 194.175 107.886 193.767 107.886 192.95C107.886 192.317 108.269 192 109.036 192C109.302 192 109.594 192.067 109.911 192.2C110.227 192.35 110.461 192.425 110.611 192.425C110.961 192.425 111.444 191.8 112.061 190.55C112.677 189.3 112.986 188.525 112.986 188.225C112.986 187.925 112.502 186.967 111.536 185.35L108.636 180.525C108.369 180.108 107.894 179.833 107.211 179.7V179.425H112.061V179.725C111.094 179.725 110.611 180.058 110.611 180.725C110.611 180.958 110.702 181.233 110.886 181.55L113.786 186.55L115.436 182.3C115.586 181.833 115.694 181.508 115.761 181.325C115.894 180.942 115.961 180.733 115.961 180.7C115.961 180.05 115.594 179.725 114.861 179.725V179.425H118.036V179.725ZM120.079 181.9C120.079 180.983 119.737 180.525 119.054 180.525C119.037 180.525 119.021 180.525 119.004 180.525L118.329 180.55V180.225C119.179 179.975 120.246 179.575 121.529 179.025L121.654 179.075V180.775L121.704 180.825C122.621 179.625 123.812 179.025 125.279 179.025C126.362 179.025 127.279 179.492 128.029 180.425C128.779 181.342 129.154 182.558 129.154 184.075C129.154 185.692 128.696 187.092 127.779 188.275C126.862 189.458 125.679 190.05 124.229 190.05C123.212 190.05 122.354 189.717 121.654 189.05V191.975C121.654 192.708 121.812 193.192 122.129 193.425C122.446 193.675 123.046 193.8 123.929 193.8V194.175H118.254V193.825C119.471 193.825 120.079 193.267 120.079 192.15V181.9ZM121.654 187.85C121.654 188.15 121.929 188.467 122.479 188.8C123.046 189.133 123.637 189.3 124.254 189.3C126.437 189.3 127.529 187.792 127.529 184.775C127.529 183.508 127.237 182.467 126.654 181.65C126.071 180.833 125.237 180.425 124.154 180.425C123.704 180.425 123.187 180.583 122.604 180.9C122.037 181.217 121.721 181.575 121.654 181.975V187.85ZM139.322 186.325C138.989 187.425 138.372 188.35 137.472 189.1C136.572 189.85 135.53 190.225 134.347 190.225C133.03 190.225 131.964 189.758 131.147 188.825C130.347 187.892 129.947 186.608 129.947 184.975C129.947 183.192 130.414 181.783 131.347 180.75C132.297 179.717 133.43 179.2 134.747 179.2C135.997 179.2 136.997 179.575 137.747 180.325C138.497 181.058 138.872 182.083 138.872 183.4H131.172C131.172 185.133 131.514 186.475 132.197 187.425C132.88 188.358 133.789 188.825 134.922 188.825C136.505 188.825 137.847 187.933 138.947 186.15L139.322 186.325ZM136.897 182.85C136.614 180.917 135.73 179.95 134.247 179.95C132.597 179.95 131.597 180.917 131.247 182.85H136.897ZM146.397 182.625C146.047 180.708 145.164 179.75 143.747 179.75C143.164 179.75 142.689 179.942 142.322 180.325C141.972 180.692 141.797 181.075 141.797 181.475C141.797 182.125 142.155 182.658 142.872 183.075L145.397 184.575C146.78 185.475 147.472 186.367 147.472 187.25C147.472 188.117 147.13 188.833 146.447 189.4C145.764 189.95 144.972 190.225 144.072 190.225C143.655 190.225 143.13 190.142 142.497 189.975C141.88 189.792 141.48 189.7 141.297 189.7C141.13 189.7 140.955 189.833 140.772 190.1H140.522V186.425H140.847C141.364 188.625 142.389 189.725 143.922 189.725C145.305 189.725 145.997 189.1 145.997 187.85C145.997 187.183 145.589 186.617 144.772 186.15L143.422 185.375C142.089 184.592 141.264 183.983 140.947 183.55C140.647 183.1 140.497 182.608 140.497 182.075C140.497 181.258 140.797 180.575 141.397 180.025C141.997 179.475 142.789 179.2 143.772 179.2C144.155 179.2 144.872 179.383 145.922 179.75C146.089 179.75 146.247 179.633 146.397 179.4H146.597L146.697 182.625H146.397ZM157.603 186.55C156.436 189 154.869 190.225 152.903 190.225C151.703 190.225 150.669 189.75 149.803 188.8C148.936 187.85 148.503 186.583 148.503 185C148.503 183.267 149.011 181.867 150.028 180.8C151.044 179.733 152.294 179.2 153.778 179.2C154.611 179.2 155.403 179.425 156.153 179.875C156.903 180.308 157.278 180.867 157.278 181.55C157.278 182.217 156.953 182.55 156.303 182.55C155.803 182.55 155.461 182.2 155.278 181.5L155.128 180.975C154.894 180.225 154.303 179.85 153.353 179.85C152.469 179.85 151.678 180.258 150.978 181.075C150.278 181.875 149.928 182.867 149.928 184.05C149.928 185.4 150.286 186.517 151.003 187.4C151.736 188.267 152.619 188.7 153.653 188.7H153.928C155.144 188.6 156.261 187.808 157.278 186.325L157.603 186.55ZM159.828 182.15C159.828 181.183 159.494 180.7 158.828 180.7C158.561 180.7 158.294 180.733 158.028 180.8V180.475C159.194 180.092 160.286 179.692 161.303 179.275L161.403 179.325V181.625C162.536 180.008 163.536 179.2 164.403 179.2C165.286 179.2 165.728 179.625 165.728 180.475C165.728 181.058 165.436 181.35 164.853 181.35C164.569 181.35 164.211 181.175 163.778 180.825C163.561 180.658 163.378 180.575 163.228 180.575C162.944 180.575 162.569 180.875 162.103 181.475C161.636 182.058 161.403 182.533 161.403 182.9V187.875C161.403 189.092 162.136 189.7 163.603 189.7V190H157.978V189.7C158.844 189.567 159.369 189.375 159.553 189.125C159.736 188.858 159.828 188.492 159.828 188.025V182.15ZM165.564 189.7C166.348 189.7 166.881 189.575 167.164 189.325C167.464 189.058 167.614 188.483 167.614 187.6V182.15C167.614 181.183 167.273 180.7 166.589 180.7C166.373 180.7 166.064 180.733 165.664 180.8V180.5C167.014 180.067 168.156 179.658 169.089 179.275L169.189 179.35V187.6C169.189 188.417 169.314 188.975 169.564 189.275C169.814 189.558 170.339 189.7 171.139 189.7V190H165.564V189.7ZM168.214 174.075C168.931 174.075 169.289 174.433 169.289 175.15C169.289 175.867 168.931 176.225 168.214 176.225C167.498 176.225 167.139 175.867 167.139 175.15C167.139 174.433 167.498 174.075 168.214 174.075ZM173.158 181.9C173.158 180.983 172.816 180.525 172.133 180.525C172.116 180.525 172.1 180.525 172.083 180.525L171.408 180.55V180.225C172.258 179.975 173.325 179.575 174.608 179.025L174.733 179.075V180.775L174.783 180.825C175.7 179.625 176.891 179.025 178.358 179.025C179.441 179.025 180.358 179.492 181.108 180.425C181.858 181.342 182.233 182.558 182.233 184.075C182.233 185.692 181.775 187.092 180.858 188.275C179.941 189.458 178.758 190.05 177.308 190.05C176.291 190.05 175.433 189.717 174.733 189.05V191.975C174.733 192.708 174.891 193.192 175.208 193.425C175.525 193.675 176.125 193.8 177.008 193.8V194.175H171.333V193.825C172.55 193.825 173.158 193.267 173.158 192.15V181.9ZM174.733 187.85C174.733 188.15 175.008 188.467 175.558 188.8C176.125 189.133 176.716 189.3 177.333 189.3C179.516 189.3 180.608 187.792 180.608 184.775C180.608 183.508 180.316 182.467 179.733 181.65C179.15 180.833 178.316 180.425 177.233 180.425C176.783 180.425 176.266 180.583 175.683 180.9C175.116 181.217 174.8 181.575 174.733 181.975V187.85ZM188.451 180.075H185.876V186.9C185.876 188.317 186.343 189.025 187.276 189.025C187.793 189.025 188.268 188.75 188.701 188.2L189.001 188.45C188.368 189.633 187.451 190.225 186.251 190.225C184.951 190.225 184.301 189.233 184.301 187.25V180.075H182.851L182.751 179.925C182.751 179.842 182.826 179.758 182.976 179.675C183.91 179.142 184.56 178.517 184.926 177.8C185.243 177.183 185.493 176.708 185.676 176.375C185.81 176.375 185.876 176.475 185.876 176.675V179.525H188.451V180.075ZM130.742 225H127.217L121.542 217.775L119.742 217.825V222.45C119.742 223.25 119.908 223.817 120.242 224.15C120.592 224.467 121.233 224.625 122.167 224.625V225H115.667V224.625C116.583 224.625 117.192 224.45 117.492 224.1C117.792 223.75 117.942 223.108 117.942 222.175V212.025C117.942 211.192 117.783 210.642 117.467 210.375C117.15 210.108 116.55 209.925 115.667 209.825V209.45H122.142C126.125 209.45 128.117 210.825 128.117 213.575C128.117 215.658 126.65 216.975 123.717 217.525L128.467 223.575C129 224.275 129.758 224.625 130.742 224.625V225ZM119.742 217.15C124.008 217.15 126.142 215.942 126.142 213.525C126.142 211.258 124.492 210.125 121.192 210.125C120.558 210.125 120.158 210.175 119.992 210.275C119.825 210.375 119.742 210.608 119.742 210.975V217.15ZM140.39 221.325C140.057 222.425 139.44 223.35 138.54 224.1C137.64 224.85 136.599 225.225 135.415 225.225C134.099 225.225 133.032 224.758 132.215 223.825C131.415 222.892 131.015 221.608 131.015 219.975C131.015 218.192 131.482 216.783 132.415 215.75C133.365 214.717 134.499 214.2 135.815 214.2C137.065 214.2 138.065 214.575 138.815 215.325C139.565 216.058 139.94 217.083 139.94 218.4H132.24C132.24 220.133 132.582 221.475 133.265 222.425C133.949 223.358 134.857 223.825 135.99 223.825C137.574 223.825 138.915 222.933 140.015 221.15L140.39 221.325ZM137.965 217.85C137.682 215.917 136.799 214.95 135.315 214.95C133.665 214.95 132.665 215.917 132.315 217.85H137.965ZM150.74 224.05C150.09 224.833 149.399 225.225 148.665 225.225C147.782 225.225 147.34 224.608 147.34 223.375C145.924 224.608 144.715 225.225 143.715 225.225C143.049 225.225 142.465 225.008 141.965 224.575C141.482 224.142 141.24 223.55 141.24 222.8C141.24 221.883 141.607 221.117 142.34 220.5C143.074 219.883 144.732 219.075 147.315 218.075V216.7C147.315 215.333 146.64 214.65 145.29 214.65C144.857 214.65 144.44 214.775 144.04 215.025C143.64 215.258 143.44 215.567 143.44 215.95C143.44 216.183 143.465 216.458 143.515 216.775C143.532 216.842 143.54 216.9 143.54 216.95C143.54 217.533 143.249 217.825 142.665 217.825C142.015 217.825 141.69 217.492 141.69 216.825C141.69 216.142 142.04 215.533 142.74 215C143.457 214.467 144.374 214.2 145.49 214.2C146.624 214.2 147.457 214.45 147.99 214.95C148.54 215.433 148.815 216.433 148.815 217.95V222.525C148.815 223.542 149.099 224.05 149.665 224.05C149.932 224.05 150.29 223.867 150.74 223.5V224.05ZM147.315 218.625C144.499 219.558 143.09 220.7 143.09 222.05C143.09 223.383 143.632 224.05 144.715 224.05C145.382 224.05 145.982 223.883 146.515 223.55C147.049 223.2 147.315 222.717 147.315 222.1V218.625ZM159.965 221.55C158.798 224 157.232 225.225 155.265 225.225C154.065 225.225 153.032 224.75 152.165 223.8C151.298 222.85 150.865 221.583 150.865 220C150.865 218.267 151.373 216.867 152.39 215.8C153.407 214.733 154.657 214.2 156.14 214.2C156.973 214.2 157.765 214.425 158.515 214.875C159.265 215.308 159.64 215.867 159.64 216.55C159.64 217.217 159.315 217.55 158.665 217.55C158.165 217.55 157.823 217.2 157.64 216.5L157.49 215.975C157.257 215.225 156.665 214.85 155.715 214.85C154.832 214.85 154.04 215.258 153.34 216.075C152.64 216.875 152.29 217.867 152.29 219.05C152.29 220.4 152.648 221.517 153.365 222.4C154.098 223.267 154.982 223.7 156.015 223.7H156.29C157.507 223.6 158.623 222.808 159.64 221.325L159.965 221.55ZM166.215 215.075H163.64V221.9C163.64 223.317 164.107 224.025 165.04 224.025C165.557 224.025 166.032 223.75 166.465 223.2L166.765 223.45C166.132 224.633 165.215 225.225 164.015 225.225C162.715 225.225 162.065 224.233 162.065 222.25V215.075H160.615L160.515 214.925C160.515 214.842 160.59 214.758 160.74 214.675C161.673 214.142 162.323 213.517 162.69 212.8C163.007 212.183 163.257 211.708 163.44 211.375C163.573 211.375 163.64 211.475 163.64 211.675V214.525H166.215V215.075ZM126.904 244.825C125.821 244.942 125.154 245.233 124.904 245.7C124.654 246.167 124.529 246.9 124.529 247.9V260.25H124.279L113.779 247.125L113.729 256.55C113.729 257.75 113.896 258.567 114.229 259C114.579 259.417 115.204 259.625 116.104 259.625V260H110.579V259.625C111.496 259.625 112.129 259.425 112.479 259.025C112.829 258.608 113.004 257.783 113.004 256.55V246.15C112.304 245.267 111.496 244.825 110.579 244.825V244.45H114.104L123.754 256.6L123.804 247.9C123.804 246.783 123.646 245.992 123.329 245.525C123.013 245.058 122.363 244.825 121.379 244.825V244.45H126.904V244.825ZM136.698 256.325C136.364 257.425 135.748 258.35 134.848 259.1C133.948 259.85 132.906 260.225 131.723 260.225C130.406 260.225 129.339 259.758 128.523 258.825C127.723 257.892 127.323 256.608 127.323 254.975C127.323 253.192 127.789 251.783 128.723 250.75C129.673 249.717 130.806 249.2 132.123 249.2C133.373 249.2 134.373 249.575 135.123 250.325C135.873 251.058 136.248 252.083 136.248 253.4H128.548C128.548 255.133 128.889 256.475 129.573 257.425C130.256 258.358 131.164 258.825 132.298 258.825C133.881 258.825 135.223 257.933 136.323 256.15L136.698 256.325ZM134.273 252.85C133.989 250.917 133.106 249.95 131.623 249.95C129.973 249.95 128.973 250.917 128.623 252.85H134.273ZM141.997 255.3L140.097 258.15C139.797 258.65 139.647 258.975 139.647 259.125C139.647 259.508 139.922 259.7 140.472 259.7V260H137.072V259.7C137.822 259.7 138.439 259.333 138.922 258.6L141.622 254.45L139.397 250.95C138.881 250.133 138.164 249.725 137.247 249.725V249.425H142.097V249.725C142.047 249.725 142.006 249.725 141.972 249.725C141.306 249.725 140.972 249.967 140.972 250.45C140.972 250.817 141.439 251.675 142.372 253.025C143.439 251.492 143.972 250.575 143.972 250.275C143.972 249.908 143.689 249.725 143.122 249.725V249.425H146.847V249.725C145.981 249.725 145.339 250.042 144.922 250.675L142.822 253.8L145.797 258.45C146.264 259.217 146.972 259.633 147.922 259.7V260H143.197V259.7C143.864 259.7 144.197 259.508 144.197 259.125C144.197 258.892 144.064 258.558 143.797 258.125L141.997 255.3ZM153.916 250.075H151.341V256.9C151.341 258.317 151.807 259.025 152.741 259.025C153.257 259.025 153.732 258.75 154.166 258.2L154.466 258.45C153.832 259.633 152.916 260.225 151.716 260.225C150.416 260.225 149.766 259.233 149.766 257.25V250.075H148.316L148.216 249.925C148.216 249.842 148.291 249.758 148.441 249.675C149.374 249.142 150.024 248.517 150.391 247.8C150.707 247.183 150.957 246.708 151.141 246.375C151.274 246.375 151.341 246.475 151.341 246.675V249.525H153.916V250.075ZM160.184 255.7C160.184 258.783 158.959 260.325 156.509 260.325C155.109 260.325 154.409 259.808 154.409 258.775C154.409 258.125 154.684 257.8 155.234 257.8C155.784 257.8 156.176 258.108 156.409 258.725C156.642 259.325 156.867 259.625 157.084 259.625C157.951 259.625 158.384 259.042 158.384 257.875V247.025C158.384 246.192 158.201 245.617 157.834 245.3C157.484 244.983 156.834 244.825 155.884 244.825V244.45H162.634V244.825C161.684 244.825 161.034 244.975 160.684 245.275C160.351 245.558 160.184 246.142 160.184 247.025V255.7ZM169.665 252.625C169.315 250.708 168.432 249.75 167.015 249.75C166.432 249.75 165.957 249.942 165.59 250.325C165.24 250.692 165.065 251.075 165.065 251.475C165.065 252.125 165.423 252.658 166.14 253.075L168.665 254.575C170.048 255.475 170.74 256.367 170.74 257.25C170.74 258.117 170.398 258.833 169.715 259.4C169.032 259.95 168.24 260.225 167.34 260.225C166.923 260.225 166.398 260.142 165.765 259.975C165.148 259.792 164.748 259.7 164.565 259.7C164.398 259.7 164.223 259.833 164.04 260.1H163.79V256.425H164.115C164.632 258.625 165.657 259.725 167.19 259.725C168.573 259.725 169.265 259.1 169.265 257.85C169.265 257.183 168.857 256.617 168.04 256.15L166.69 255.375C165.357 254.592 164.532 253.983 164.215 253.55C163.915 253.1 163.765 252.608 163.765 252.075C163.765 251.258 164.065 250.575 164.665 250.025C165.265 249.475 166.057 249.2 167.04 249.2C167.423 249.2 168.14 249.383 169.19 249.75C169.357 249.75 169.515 249.633 169.665 249.4H169.865L169.965 252.625H169.665ZM128.21 279.825C127.127 279.942 126.46 280.233 126.21 280.7C125.96 281.167 125.835 281.9 125.835 282.9V295.25H125.585L115.085 282.125L115.035 291.55C115.035 292.75 115.202 293.567 115.535 294C115.885 294.417 116.51 294.625 117.41 294.625V295H111.885V294.625C112.802 294.625 113.435 294.425 113.785 294.025C114.135 293.608 114.31 292.783 114.31 291.55V281.15C113.61 280.267 112.802 279.825 111.885 279.825V279.45H115.41L125.06 291.6L125.11 282.9C125.11 281.783 124.952 280.992 124.635 280.525C124.319 280.058 123.669 279.825 122.685 279.825V279.45H128.21V279.825ZM138.004 291.325C137.67 292.425 137.054 293.35 136.154 294.1C135.254 294.85 134.212 295.225 133.029 295.225C131.712 295.225 130.645 294.758 129.829 293.825C129.029 292.892 128.629 291.608 128.629 289.975C128.629 288.192 129.095 286.783 130.029 285.75C130.979 284.717 132.112 284.2 133.429 284.2C134.679 284.2 135.679 284.575 136.429 285.325C137.179 286.058 137.554 287.083 137.554 288.4H129.854C129.854 290.133 130.195 291.475 130.879 292.425C131.562 293.358 132.47 293.825 133.604 293.825C135.187 293.825 136.529 292.933 137.629 291.15L138.004 291.325ZM135.579 287.85C135.295 285.917 134.412 284.95 132.929 284.95C131.279 284.95 130.279 285.917 129.929 287.85H135.579ZM145.079 287.625C144.729 285.708 143.845 284.75 142.429 284.75C141.845 284.75 141.37 284.942 141.004 285.325C140.654 285.692 140.479 286.075 140.479 286.475C140.479 287.125 140.837 287.658 141.554 288.075L144.079 289.575C145.462 290.475 146.154 291.367 146.154 292.25C146.154 293.117 145.812 293.833 145.129 294.4C144.445 294.95 143.654 295.225 142.754 295.225C142.337 295.225 141.812 295.142 141.179 294.975C140.562 294.792 140.162 294.7 139.979 294.7C139.812 294.7 139.637 294.833 139.454 295.1H139.204V291.425H139.529C140.045 293.625 141.07 294.725 142.604 294.725C143.987 294.725 144.679 294.1 144.679 292.85C144.679 292.183 144.27 291.617 143.454 291.15L142.104 290.375C140.77 289.592 139.945 288.983 139.629 288.55C139.329 288.1 139.179 287.608 139.179 287.075C139.179 286.258 139.479 285.575 140.079 285.025C140.679 284.475 141.47 284.2 142.454 284.2C142.837 284.2 143.554 284.383 144.604 284.75C144.77 284.75 144.929 284.633 145.079 284.4H145.279L145.379 287.625H145.079ZM152.609 285.075H150.034V291.9C150.034 293.317 150.501 294.025 151.434 294.025C151.951 294.025 152.426 293.75 152.859 293.2L153.159 293.45C152.526 294.633 151.609 295.225 150.409 295.225C149.109 295.225 148.459 294.233 148.459 292.25V285.075H147.009L146.909 284.925C146.909 284.842 146.984 284.758 147.134 284.675C148.068 284.142 148.718 283.517 149.084 282.8C149.401 282.183 149.651 281.708 149.834 281.375C149.968 281.375 150.034 281.475 150.034 281.675V284.525H152.609V285.075ZM158.878 290.7C158.878 293.783 157.653 295.325 155.203 295.325C153.803 295.325 153.103 294.808 153.103 293.775C153.103 293.125 153.378 292.8 153.928 292.8C154.478 292.8 154.87 293.108 155.103 293.725C155.336 294.325 155.561 294.625 155.778 294.625C156.645 294.625 157.078 294.042 157.078 292.875V282.025C157.078 281.192 156.895 280.617 156.528 280.3C156.178 279.983 155.528 279.825 154.578 279.825V279.45H161.328V279.825C160.378 279.825 159.728 279.975 159.378 280.275C159.045 280.558 158.878 281.142 158.878 282.025V290.7ZM168.359 287.625C168.009 285.708 167.125 284.75 165.709 284.75C165.125 284.75 164.65 284.942 164.284 285.325C163.934 285.692 163.759 286.075 163.759 286.475C163.759 287.125 164.117 287.658 164.834 288.075L167.359 289.575C168.742 290.475 169.434 291.367 169.434 292.25C169.434 293.117 169.092 293.833 168.409 294.4C167.725 294.95 166.934 295.225 166.034 295.225C165.617 295.225 165.092 295.142 164.459 294.975C163.842 294.792 163.442 294.7 163.259 294.7C163.092 294.7 162.917 294.833 162.734 295.1H162.484V291.425H162.809C163.325 293.625 164.35 294.725 165.884 294.725C167.267 294.725 167.959 294.1 167.959 292.85C167.959 292.183 167.55 291.617 166.734 291.15L165.384 290.375C164.05 289.592 163.225 288.983 162.909 288.55C162.609 288.1 162.459 287.608 162.459 287.075C162.459 286.258 162.759 285.575 163.359 285.025C163.959 284.475 164.75 284.2 165.734 284.2C166.117 284.2 166.834 284.383 167.884 284.75C168.05 284.75 168.209 284.633 168.359 284.4H168.559L168.659 287.625H168.359ZM121.889 324.575C121.772 323.608 121.539 322.975 121.189 322.675C120.856 322.375 120.231 322.217 119.314 322.2L115.614 322.175V327.45C115.614 328.9 116.422 329.625 118.039 329.625V330H111.464V329.625C112.347 329.625 112.956 329.458 113.289 329.125C113.639 328.775 113.814 328.125 113.814 327.175V317.025C113.814 316.308 113.672 315.783 113.389 315.45C113.122 315.117 112.481 314.908 111.464 314.825V314.45H123.939L124.014 317.825H123.489C123.306 316.758 122.972 316.042 122.489 315.675C122.022 315.308 121.147 315.125 119.864 315.125H116.364C115.864 315.125 115.614 315.392 115.614 315.925V321.5H119.314C120.264 321.5 120.897 321.342 121.214 321.025C121.547 320.692 121.772 320.058 121.889 319.125H122.439V324.575H121.889ZM124.25 329.7C125.584 329.7 126.25 329.117 126.25 327.95V316.75C126.25 315.783 125.85 315.3 125.05 315.3C125.034 315.3 125.017 315.3 125 315.3L124.2 315.325V315C124.867 314.833 126.042 314.483 127.725 313.95L127.825 314V328.025C127.825 329.142 128.475 329.7 129.775 329.7V330H124.25V329.7ZM141.019 329.15C140.402 329.3 139.869 329.458 139.419 329.625C138.802 329.875 138.311 330.067 137.944 330.2L137.894 328.025C136.544 329.492 135.319 330.225 134.219 330.225C132.502 330.225 131.644 329.208 131.644 327.175V321.275C131.644 320.225 131.086 319.7 129.969 319.7V319.425H133.219V327.1C133.219 328.283 133.869 328.875 135.169 328.875C135.769 328.875 136.352 328.667 136.919 328.25C137.502 327.817 137.794 327.283 137.794 326.65V321.3C137.794 320.283 137.144 319.775 135.844 319.775V319.425H139.369V327.475C139.369 328.408 139.919 328.875 141.019 328.875V329.15ZM147.012 320.075H144.437V326.9C144.437 328.317 144.904 329.025 145.837 329.025C146.354 329.025 146.829 328.75 147.262 328.2L147.562 328.45C146.929 329.633 146.012 330.225 144.812 330.225C143.512 330.225 142.862 329.233 142.862 327.25V320.075H141.412L141.312 319.925C141.312 319.842 141.387 319.758 141.537 319.675C142.471 319.142 143.121 318.517 143.487 317.8C143.804 317.183 144.054 316.708 144.237 316.375C144.371 316.375 144.437 316.475 144.437 316.675V319.525H147.012V320.075ZM153.031 320.075H150.456V326.9C150.456 328.317 150.922 329.025 151.856 329.025C152.372 329.025 152.847 328.75 153.281 328.2L153.581 328.45C152.947 329.633 152.031 330.225 150.831 330.225C149.531 330.225 148.881 329.233 148.881 327.25V320.075H147.431L147.331 319.925C147.331 319.842 147.406 319.758 147.556 319.675C148.489 319.142 149.139 318.517 149.506 317.8C149.822 317.183 150.072 316.708 150.256 316.375C150.389 316.375 150.456 316.475 150.456 316.675V319.525H153.031V320.075ZM162.999 326.325C162.666 327.425 162.049 328.35 161.149 329.1C160.249 329.85 159.208 330.225 158.024 330.225C156.708 330.225 155.641 329.758 154.824 328.825C154.024 327.892 153.624 326.608 153.624 324.975C153.624 323.192 154.091 321.783 155.024 320.75C155.974 319.717 157.108 319.2 158.424 319.2C159.674 319.2 160.674 319.575 161.424 320.325C162.174 321.058 162.549 322.083 162.549 323.4H154.849C154.849 325.133 155.191 326.475 155.874 327.425C156.558 328.358 157.466 328.825 158.599 328.825C160.183 328.825 161.524 327.933 162.624 326.15L162.999 326.325ZM160.574 322.85C160.291 320.917 159.408 319.95 157.924 319.95C156.274 319.95 155.274 320.917 154.924 322.85H160.574ZM164.949 322.15C164.949 321.183 164.616 320.7 163.949 320.7C163.682 320.7 163.416 320.733 163.149 320.8V320.475C164.316 320.092 165.407 319.692 166.424 319.275L166.524 319.325V321.625C167.657 320.008 168.657 319.2 169.524 319.2C170.407 319.2 170.849 319.625 170.849 320.475C170.849 321.058 170.557 321.35 169.974 321.35C169.691 321.35 169.332 321.175 168.899 320.825C168.682 320.658 168.499 320.575 168.349 320.575C168.066 320.575 167.691 320.875 167.224 321.475C166.757 322.058 166.524 322.533 166.524 322.9V327.875C166.524 329.092 167.257 329.7 168.724 329.7V330H163.099V329.7C163.966 329.567 164.491 329.375 164.674 329.125C164.857 328.858 164.949 328.492 164.949 328.025V322.15Z" fill="black"/>
</svg>
